<?xml version="1.0" standalone="no"?>
<!DOCTYPE svg PUBLIC "-//W3C//DTD SVG 20010904//EN"
 "http://www.w3.org/TR/2001/REC-SVG-20010904/DTD/svg10.dtd">
<svg version="1.0" xmlns="http://www.w3.org/2000/svg"
 width="500.000000pt" height="500.000000pt" viewBox="0 0 500.000000 500.000000"
 preserveAspectRatio="xMidYMid meet">

<g transform="translate(0.000000,500.000000) scale(0.100000,-0.100000)"
fill="#000000" stroke="none">
<path d="M2270 4764 c-167 -22 -407 -81 -534 -133 -167 -68 -433 -227 -399
-238 6 -2 44 16 84 41 41 26 77 46 81 46 3 0 33 16 66 35 137 82 306 143 512
186 144 29 170 32 360 33 153 0 228 -4 295 -16 114 -22 255 -59 320 -85 147
-59 344 -166 439 -238 39 -30 94 -70 121 -90 l50 -37 -45 42 c-114 107 -418
289 -583 350 -79 29 -241 70 -336 87 -86 14 -365 25 -431 17z"/>
<path d="M2223 4693 l-41 -4 -4 -97 c-2 -53 -2 -100 1 -103 10 -11 104 5 109
19 2 8 -10 12 -43 12 -45 0 -46 1 -43 28 3 23 8 27 41 30 50 4 52 32 2 32 -31
0 -35 3 -35 25 0 23 4 25 41 25 32 0 40 3 37 17 -4 19 -9 21 -65 16z"/>
<path d="M2426 4684 c-9 -23 -8 -24 19 -24 l26 0 -3 -86 c-2 -59 1 -88 8 -91
8 -3 14 16 18 49 16 127 16 128 42 128 39 0 28 27 -13 34 -62 10 -90 7 -97
-10z"/>
<path d="M2638 4678 c-50 -18 -74 -109 -43 -168 42 -82 161 -17 159 86 -1 69
-53 105 -116 82z m80 -79 c6 -66 -70 -121 -98 -70 -29 54 6 115 63 109 29 -3
32 -7 35 -39z"/>
<path d="M3255 4626 c233 -126 352 -213 520 -381 125 -125 215 -236 298 -368
76 -122 155 -279 149 -296 -3 -8 0 -11 7 -7 7 5 9 1 5 -8 -3 -9 -1 -16 6 -16
6 0 9 -4 5 -9 -3 -5 -1 -12 5 -16 6 -4 8 -11 5 -16 -4 -5 -2 -9 2 -9 5 0 18
-33 31 -72 12 -40 33 -110 47 -156 14 -46 25 -92 25 -103 0 -10 3 -19 8 -19 4
0 8 -19 9 -42 3 -74 19 -192 30 -213 10 -20 16 -166 16 -375 0 -200 -53 -511
-123 -720 -10 -30 -23 -75 -30 -100 -6 -25 -29 -81 -49 -125 -21 -44 -49 -102
-61 -130 -13 -27 -38 -74 -57 -103 -18 -29 -33 -56 -33 -61 0 -21 -149 -233
-224 -320 -110 -126 -184 -200 -291 -288 -49 -41 -103 -86 -120 -100 -45 -39
-241 -166 -318 -207 -373 -197 -809 -248 -1204 -141 -169 46 -387 142 -498
220 -27 19 -81 55 -119 81 -62 42 -114 87 -262 229 -29 28 -86 92 -129 143
-42 51 -80 90 -85 87 -6 -4 -10 -1 -10 6 0 7 -3 9 -6 6 -4 -4 6 -23 22 -44 16
-21 32 -42 36 -48 35 -49 161 -185 231 -252 214 -201 415 -328 677 -426 85
-32 147 -47 359 -88 86 -17 360 -17 496 -1 218 26 501 95 686 167 100 39 249
109 249 117 0 4 -12 9 -27 11 -16 2 -10 3 12 1 24 -1 48 3 59 12 18 12 10 14
-72 14 -51 0 -92 3 -92 8 0 4 45 6 99 4 69 -2 107 1 123 10 22 12 20 13 -32
19 l-55 7 64 -2 c44 -1 66 3 68 12 3 8 -12 12 -54 13 -32 1 -69 5 -83 10 -15
5 15 6 78 3 111 -7 144 8 45 21 -85 10 -110 25 -33 19 36 -3 77 -7 92 -9 15
-2 31 2 38 10 11 13 7 15 -21 16 -19 0 -56 7 -84 14 l-50 13 55 0 c30 1 74 -3
97 -7 30 -6 48 -5 60 4 15 11 7 14 -52 20 -105 12 -135 26 -40 20 44 -3 90 -6
103 -8 16 -1 45 17 96 63 67 60 130 130 123 136 -1 2 -40 8 -87 13 -121 16
-128 33 -10 25 52 -4 98 -12 102 -18 12 -19 84 62 177 199 115 170 180 280
170 289 -3 3 -45 9 -94 13 -70 6 -90 11 -90 23 0 12 14 14 80 12 44 -2 90 -10
101 -17 19 -12 22 -11 33 12 6 14 9 28 6 31 -2 3 -31 7 -62 9 -80 6 -125 16
-121 28 4 13 156 7 182 -7 23 -12 32 0 42 55 3 21 12 41 20 44 8 3 14 16 14
28 0 13 6 30 13 37 8 7 16 29 19 49 l6 36 -68 12 c-38 6 -80 11 -94 11 -19 0
-26 5 -26 20 0 24 15 25 120 6 71 -13 99 -9 87 11 -6 9 -64 24 -149 38 -25 4
-38 11 -38 22 0 13 8 14 43 9 23 -4 62 -10 87 -13 25 -3 51 -10 57 -15 9 -8
15 -4 22 13 8 22 5 25 -36 36 -25 6 -68 14 -96 18 -29 4 -60 12 -71 17 -13 7
-16 7 -12 -1 4 -6 2 -11 -5 -11 -8 0 -9 10 -5 33 107 500 94 1005 -38 1409
-64 194 -113 325 -134 359 -12 19 -32 55 -45 81 -14 26 -34 64 -47 85 l-22 38
40 -42 c22 -24 48 -43 59 -43 10 0 62 -13 113 -30 109 -34 103 -33 96 -21 -4
5 -45 21 -94 36 -48 14 -102 31 -119 36 -34 11 -54 29 -31 29 8 0 40 -7 71
-15 32 -8 66 -15 75 -15 35 1 -12 18 -86 31 -68 11 -114 31 -102 42 5 5 74 -8
165 -32 50 -13 55 -13 55 -1 0 6 -18 10 -39 10 -22 0 -41 4 -43 10 -1 5 -36
18 -77 29 -40 11 -80 26 -88 33 -10 10 12 8 79 -9 51 -12 99 -23 107 -23 28 0
1 12 -56 25 -125 29 -182 49 -170 61 2 2 39 -5 83 -17 142 -37 143 -38 138
-24 -3 7 -20 16 -37 19 -80 15 -230 61 -210 64 21 3 149 -26 199 -44 17 -7 17
-6 5 9 -7 9 -19 17 -26 17 -7 0 -35 6 -61 14 -27 8 -75 20 -106 26 -32 6 -58
16 -58 21 0 9 17 7 90 -12 19 -5 48 -9 64 -9 16 0 38 -8 49 -17 19 -18 19 -17
6 5 -9 14 -24 22 -42 22 -15 0 -26 4 -22 10 3 5 13 6 22 3 12 -5 10 2 -7 25
-26 35 -32 40 -24 18 4 -11 -4 -12 -45 -4 -56 10 -135 36 -111 37 8 0 35 -4
59 -10 53 -12 88 -4 71 16 -15 18 -185 51 -175 35 3 -4 31 -10 62 -14 32 -4
69 -13 83 -21 33 -19 21 -18 -73 4 -72 17 -117 42 -140 78 -4 7 -14 10 -22 7
-8 -4 -15 -1 -15 5 0 6 8 11 18 11 16 1 16 1 -1 11 -9 5 -21 8 -26 5 -4 -3
-17 1 -27 9 -18 14 -18 14 6 16 l25 1 -25 8 c-25 8 -25 8 5 10 21 2 24 4 10 7
-40 8 -81 27 -111 49 -17 13 -34 20 -38 17 -3 -4 -6 -1 -6 5 0 5 3 12 8 15 4
2 1 2 -6 0 -20 -5 -37 8 -22 17 7 5 2 8 -14 8 -14 0 -23 -4 -20 -9 3 -5 -2 -6
-11 -2 -13 4 -14 8 -4 14 11 6 10 9 -3 14 -10 4 -21 4 -25 2 -5 -3 -15 -2 -23
4 -12 7 -9 9 10 9 20 0 14 6 -28 26 -32 15 -50 29 -46 36 5 7 0 9 -14 6 -14
-4 -20 -2 -16 4 4 6 -2 8 -16 3 -19 -6 -22 -4 -16 10 5 14 2 16 -14 12 -11 -3
-18 -1 -15 3 3 5 -18 16 -47 26 -29 9 -76 28 -106 41 -86 38 -74 26 33 -31z
m425 -236 c0 -5 -4 -10 -10 -10 -5 0 -10 5 -10 10 0 6 5 10 10 10 6 0 10 -4
10 -10z m74 -55 c-4 -8 -10 -12 -15 -9 -14 8 -10 24 6 24 9 0 12 -6 9 -15z
m115 -135 c11 -24 11 -24 -3 -6 -9 11 -16 24 -16 30 0 12 5 7 19 -24z m197
-82 c68 -13 69 -13 25 -16 -49 -4 -122 20 -143 45 -12 15 -10 15 18 0 17 -9
62 -22 100 -29z m44 -212 c0 -6 -7 -1 -15 10 -8 10 -15 23 -15 28 0 6 7 1 15
-10 8 -10 15 -23 15 -28z m423 -2221 c9 -4 17 -14 17 -21 0 -12 -11 -13 -52
-8 -106 13 -132 20 -136 33 -4 12 10 13 74 8 44 -3 87 -8 97 -12z m-20 -71 c9
-3 17 -12 17 -20 0 -21 -34 -19 -177 12 -13 2 -23 9 -23 15 0 11 139 5 183 -7z
m-54 -74 c31 -8 40 -30 12 -30 -17 0 -69 9 -149 26 -13 2 -20 9 -17 15 7 10
102 3 154 -11z m-75 -211 c20 -18 -7 -22 -85 -12 -119 16 -130 37 -14 28 50
-4 94 -11 99 -16z m-26 -77 c5 -15 3 -15 -95 -1 -78 11 -100 19 -90 37 9 13
179 -20 185 -36z m-114 -42 c71 -11 84 -15 73 -26 -8 -9 -187 17 -187 27 0 11
28 11 114 -1z m-31 -55 c37 -4 67 -11 67 -17 0 -11 -164 -3 -182 8 -16 10 3
24 25 20 12 -3 52 -8 90 -11z m25 -64 c1 -1 2 -6 2 -12 0 -9 -21 -10 -72 -5
-83 8 -119 15 -114 25 3 5 167 -2 184 -8z m-52 -51 c16 -7 24 -14 18 -20 -11
-10 -147 5 -172 19 -24 14 118 14 154 1z m-28 -56 c7 -2 10 -9 6 -15 -10 -16
-184 5 -184 22 0 9 147 3 178 -7z m-38 -50 c13 -5 12 -7 -2 -15 -18 -10 -178
9 -178 22 0 7 157 1 180 -7z m-80 -105 c10 -5 -3 -8 -36 -9 -72 0 -144 11
-144 22 0 12 157 0 180 -13z m-92 -35 c28 -4 52 -11 52 -17 0 -12 -161 0 -174
13 -12 12 43 13 122 4z m-3 -54 c25 -11 -107 -11 -150 0 -21 5 -7 8 50 8 44 0
89 -3 100 -8z m-42 -45 c2 -11 -69 -9 -133 4 -40 8 -35 9 43 8 48 -1 88 -6 90
-12z m-366 -181 c-3 -3 -12 -4 -19 -1 -8 3 -5 6 6 6 11 1 17 -2 13 -5z m-130
-80 c-3 -3 -12 -4 -19 -1 -8 3 -5 6 6 6 11 1 17 -2 13 -5z"/>
<path d="M2005 4653 c-19 -3 -20 -10 -17 -101 2 -53 5 -98 7 -100 7 -7 102 21
117 35 22 20 23 69 3 81 -12 6 -14 14 -6 33 19 50 -19 69 -104 52z m75 -32 c0
-25 -14 -41 -36 -41 -17 0 -24 6 -24 18 0 10 3 22 7 25 10 10 53 8 53 -2z m16
-83 c8 -13 -30 -48 -52 -48 -18 0 -19 46 -1 53 22 9 46 7 53 -5z"/>
<path d="M2825 4648 c-18 -53 -52 -184 -48 -190 9 -15 33 -8 33 10 0 10 6 27
14 37 13 18 14 17 21 -16 12 -61 16 -69 37 -69 16 0 19 5 15 23 -4 12 -9 41
-13 64 -6 40 -5 42 35 68 45 30 50 40 24 49 -10 4 -33 -5 -62 -26 -35 -25 -43
-28 -36 -12 13 29 11 67 -2 71 -7 3 -15 -1 -18 -9z"/>
<path d="M1821 4589 c-47 -44 -53 -103 -15 -148 34 -41 75 -42 115 -2 23 23
29 38 29 71 0 33 -6 48 -29 71 -35 34 -69 37 -100 8z m83 -41 c22 -31 20 -58
-6 -85 -26 -27 -35 -28 -60 -6 -24 21 -23 68 2 93 26 26 45 25 64 -2z"/>
<path d="M3001 4578 c-5 -13 -23 -57 -40 -98 l-30 -75 47 -21 c41 -19 48 -20
56 -6 9 15 4 21 -39 47 -14 9 -14 13 -2 29 11 15 17 16 34 7 16 -8 23 -7 32 2
12 15 -3 37 -26 37 -15 0 -17 19 -4 39 6 10 13 11 29 2 31 -16 52 -13 52 7 0
13 -12 23 -37 31 -21 7 -44 15 -50 17 -7 3 -17 -5 -22 -18z"/>
<path d="M1652 4517 c-8 -10 -9 -23 -3 -43 5 -16 17 -55 26 -87 l16 -57 29 15
c16 8 36 15 45 15 9 0 15 9 15 24 0 24 -1 25 -34 11 l-33 -14 -17 62 c-22 80
-29 92 -44 74z"/>
<path d="M3168 4503 c-9 -10 -34 -49 -57 -87 -31 -51 -38 -71 -29 -77 17 -11
22 -6 57 56 17 30 32 55 34 55 1 0 2 -37 2 -82 0 -110 15 -113 73 -14 23 40
42 81 42 90 0 34 -30 14 -52 -34 l-23 -51 -5 77 c-5 80 -16 97 -42 67z"/>
<path d="M1509 4441 c-23 -24 -29 -38 -29 -74 0 -86 57 -120 128 -77 34 21 38
38 21 88 -10 28 -13 31 -32 20 -38 -19 -50 -50 -17 -41 15 4 20 0 20 -15 0
-48 -56 -55 -78 -9 -19 40 -8 72 33 97 19 12 33 26 29 31 -11 18 -46 8 -75
-20z"/>
<path d="M2200 4440 c-236 -26 -547 -147 -750 -290 -47 -33 -103 -72 -125 -86
-58 -38 -338 -323 -358 -364 -9 -19 -38 -58 -64 -86 -51 -53 -148 -222 -181
-314 -11 -30 -44 -122 -74 -205 -60 -165 -69 -202 -97 -414 -12 -92 -24 -147
-32 -152 -8 -5 -35 -9 -61 -9 -66 0 -70 11 -58 157 11 138 38 278 87 453 52
187 87 278 181 463 l84 168 22 -20 c25 -23 41 -28 30 -8 -4 6 9 -3 29 -22 20
-19 40 -43 43 -53 4 -15 9 -17 20 -7 20 16 18 24 -16 57 -29 29 -41 72 -20 72
6 0 10 8 10 19 0 21 -43 71 -61 71 -17 0 -79 -69 -79 -87 0 -9 -6 -24 -14 -32
-31 -36 -177 -332 -200 -406 -13 -44 -40 -126 -59 -182 -46 -132 -79 -305 -94
-478 -1 -22 -3 -125 -4 -230 -1 -285 43 -545 143 -840 51 -152 81 -215 182
-385 61 -103 76 -107 24 -7 -44 83 -43 80 -20 68 17 -9 23 -8 31 6 10 17 10
17 11 1 0 -10 3 -18 8 -18 4 0 12 -10 17 -22 6 -12 16 -23 23 -24 7 -1 8 0 2
3 -5 2 -10 9 -10 14 0 6 8 5 20 -1 11 -6 18 -16 15 -23 -4 -7 1 -3 9 7 9 11
16 15 16 9 0 -7 -4 -15 -10 -18 -5 -3 -23 -26 -40 -50 l-31 -45 21 -40 c11
-22 23 -40 26 -40 26 0 131 102 151 148 9 22 9 31 -3 49 -17 27 -18 42 -1 22
6 -8 27 -28 46 -44 l34 -30 -23 40 c-13 22 -32 52 -42 67 -10 14 -18 29 -18
33 0 3 -11 21 -24 38 -59 78 -186 309 -186 338 0 6 -13 43 -29 82 -34 86 -84
284 -106 422 -26 157 -24 419 5 580 35 199 89 363 191 575 101 209 214 365
380 525 273 262 608 438 959 505 301 57 674 -9 986 -174 181 -96 435 -316 538
-466 117 -169 137 -201 184 -292 65 -128 139 -325 157 -418 3 -14 13 -65 24
-115 30 -142 45 -329 37 -483 -10 -195 -70 -478 -125 -589 -12 -23 -21 -46
-21 -52 0 -21 -89 -198 -118 -233 -16 -21 -35 -52 -42 -70 -13 -31 -122 -185
-180 -253 -89 -104 -202 -220 -273 -280 -26 -22 -61 -52 -77 -67 -16 -15 -46
-36 -67 -48 -21 -12 -56 -32 -78 -45 -63 -37 -224 -114 -274 -131 -25 -8 -53
-17 -61 -21 -8 -3 -25 -7 -38 -9 -12 -1 -36 -9 -53 -18 -16 -8 -37 -12 -46 -9
-12 5 -14 3 -8 -6 5 -10 2 -11 -13 -7 -11 4 -39 2 -63 -4 -24 -7 -52 -11 -61
-11 -21 0 -35 -18 -16 -20 7 -1 -12 -5 -42 -9 -83 -12 -268 -12 -275 0 -3 6
-17 10 -31 10 -17 0 -23 4 -18 12 4 7 3 8 -5 4 -6 -4 -17 -3 -24 2 -7 5 -28
13 -47 17 -19 4 -41 11 -50 16 -8 4 -42 15 -75 24 -33 8 -82 26 -110 39 -103
49 -125 57 -118 41 3 -8 13 -15 22 -16 9 0 11 -3 6 -5 -6 -2 -28 5 -50 16 -22
11 -34 20 -27 20 7 0 12 5 12 10 0 6 -7 10 -15 10 -8 0 -15 4 -15 9 0 9 -39
23 -72 26 -38 4 -185 110 -307 220 -40 36 -75 64 -78 61 -24 -24 232 -243 391
-334 196 -112 411 -192 587 -216 357 -50 664 15 994 209 196 115 422 326 592
555 94 125 102 138 186 300 112 218 168 384 212 635 34 189 41 219 51 222 23
8 -48 -369 -105 -557 -42 -136 -175 -414 -235 -491 -12 -15 -30 -41 -41 -60
-32 -52 -38 -61 -88 -113 -26 -27 -45 -56 -43 -63 3 -7 2 -13 -3 -13 -8 0 -35
-26 -132 -133 -74 -81 -307 -262 -410 -318 -210 -115 -394 -177 -597 -203
-170 -22 -257 -20 -408 8 -167 31 -257 62 -434 149 -209 102 -387 223 -478
322 -27 30 -46 43 -56 39 -9 -3 -13 -10 -10 -15 3 -5 0 -9 -6 -9 -6 0 -13 6
-16 14 -3 8 -19 20 -35 26 -16 7 -34 21 -40 32 -6 11 -17 17 -24 14 -7 -2 -21
4 -31 15 -14 16 -15 20 -4 17 8 -2 19 -7 23 -13 5 -6 7 -4 5 4 -4 15 -48 27
-48 13 0 -4 -16 -24 -35 -46 -41 -44 -40 -43 -18 -70 10 -12 4 -9 -13 7 -73
66 -37 5 66 -113 30 -34 58 -68 63 -75 8 -15 185 -174 269 -243 92 -75 278
-190 387 -238 89 -40 72 -27 -44 34 -112 58 -265 159 -265 174 0 14 20 9 26
-7 4 -9 27 -27 53 -42 25 -14 53 -32 61 -39 33 -28 243 -125 308 -143 38 -10
78 -24 88 -29 11 -5 46 -15 79 -21 33 -7 87 -18 120 -26 87 -20 360 -29 479
-16 101 12 232 40 296 65 206 79 248 99 375 173 39 22 87 46 108 54 24 8 45
25 57 46 11 18 24 33 31 33 6 0 36 23 67 51 31 28 72 62 92 74 43 27 195 186
215 226 14 26 14 32 -2 56 l-17 28 30 -28 c29 -26 31 -26 46 -10 9 10 23 33
33 52 9 19 28 46 42 60 66 69 205 310 264 456 17 43 35 86 39 94 17 34 71 223
98 341 56 242 62 276 62 346 0 72 -10 94 -42 94 -10 0 -18 5 -18 10 0 6 16 10
35 10 l35 0 0 154 c0 258 -26 439 -95 671 -46 153 -87 253 -153 373 -31 57
-63 116 -71 130 -18 35 -121 182 -127 182 -3 0 -17 -8 -32 -17 l-27 -17 23 25
c12 14 22 28 22 32 0 3 -14 22 -31 42 -38 43 -66 45 -104 5 -16 -16 -45 -41
-66 -56 -21 -14 -50 -44 -65 -66 -28 -40 -28 -41 -9 -57 37 -30 195 -238 195
-256 0 -4 28 -57 62 -118 33 -61 69 -136 79 -167 9 -30 26 -80 38 -111 11 -31
27 -85 35 -120 8 -35 19 -82 25 -104 35 -130 61 -435 38 -435 -11 0 -16 28
-21 113 -7 127 -44 354 -76 469 -26 94 -98 270 -135 328 -15 23 -35 61 -44 84
-10 22 -54 88 -97 145 -44 57 -89 118 -102 135 -12 17 -64 73 -115 125 -239
243 -523 396 -873 471 -112 24 -340 34 -464 20z m1695 -531 c-4 -5 -1 -9 4 -9
16 0 -10 -39 -29 -43 -10 -2 -8 -5 8 -9 12 -3 20 -2 16 3 -3 5 0 9 5 9 6 0 11
-10 11 -23 0 -13 5 -28 11 -34 7 -7 7 -13 1 -17 -5 -3 -13 6 -16 20 l-7 27
-31 -29 c-16 -16 -34 -38 -38 -49 -8 -19 -9 -19 -9 -1 -1 11 7 28 17 39 9 11
12 18 7 15 -6 -4 -29 -9 -52 -12 -31 -5 -42 -3 -46 9 -4 8 -2 14 3 12 14 -4
110 76 110 93 0 13 1 13 10 0 8 -13 10 -12 10 3 0 10 5 15 10 12 6 -4 8 -11 5
-16z m57 -42 c-12 -14 10 -51 24 -39 4 4 3 0 -4 -9 -10 -14 -10 -18 3 -23 18
-7 20 -36 3 -36 -9 0 -8 -4 2 -11 12 -9 12 -10 -4 -5 -10 4 -33 -3 -53 -15
l-35 -22 12 23 c10 18 9 25 -4 38 -20 21 -30 10 -29 -33 1 -19 -3 -32 -8 -29
-13 8 -10 57 5 77 13 17 15 16 39 -12 22 -27 27 -28 43 -16 18 14 18 15 -2 54
-20 36 -20 41 -6 55 19 19 29 21 14 3z m61 -113 c23 -9 -16 -70 -54 -83 -16
-5 -29 -15 -29 -21 0 -6 -4 -9 -9 -5 -5 3 -12 1 -16 -5 -3 -5 -11 -10 -16 -10
-17 0 -1 18 61 70 34 28 54 51 47 53 -17 7 -2 8 16 1z m91 -279 c-4 -8 -8 -15
-10 -15 -2 0 -4 7 -4 15 0 8 4 15 10 15 5 0 7 -7 4 -15z m96 -181 c13 -32 13
-30 -6 -48 -22 -23 -41 -20 -20 3 13 14 14 24 7 45 -7 17 -7 26 -1 26 6 0 15
-12 20 -26z m-116 -19 c-7 -18 13 -45 33 -45 11 0 13 8 8 33 l-6 32 15 -25 c9
-14 15 -31 16 -37 0 -18 -46 -16 -64 3 -18 17 -22 54 -6 54 5 0 7 -7 4 -15z
m153 -81 c2 -7 -6 -10 -22 -7 -14 3 -25 10 -25 15 0 13 43 6 47 -8z m-57 -74
c-4 -14 -12 -25 -18 -24 -7 1 -19 2 -27 3 -20 2 -37 38 -30 61 10 31 23 23 21
-12 -1 -27 3 -33 19 -33 16 0 19 6 17 27 -2 15 0 33 4 40 11 18 22 -30 14 -62z
m70 30 c0 -22 -22 -36 -39 -26 -6 4 -4 14 7 26 23 24 32 24 32 0z m-52 -117
c-10 -2 -28 -2 -40 0 -13 2 -5 4 17 4 22 1 32 -1 23 -4z m92 -248 c0 -14 0
-28 1 -32 0 -4 -3 -9 -8 -10 -4 -2 -8 13 -9 32 0 19 3 35 8 35 4 0 8 -11 8
-25z m-73 -17 c-3 -7 -5 -2 -5 12 0 14 2 19 5 13 2 -7 2 -19 0 -25z m-3676
-365 c2 -160 63 -446 135 -632 24 -63 41 -117 39 -120 -3 -2 -5 1 -5 8 0 7 -4
10 -8 7 -5 -3 -16 8 -26 25 -17 28 -40 32 -30 5 3 -8 1 -17 -5 -21 -6 -3 -15
4 -19 16 -6 14 -11 18 -16 11 -4 -6 -2 -21 4 -32 6 -11 7 -20 2 -20 -12 0 -22
38 -15 56 3 8 15 14 27 12 17 -2 21 2 19 22 -2 14 -3 35 -4 47 -1 13 -6 20
-10 17 -5 -3 -9 -2 -8 3 4 13 -23 63 -34 63 -5 0 -4 7 3 15 15 19 9 28 -14 19
-18 -7 -21 -20 -6 -29 6 -3 10 -16 10 -28 l0 -21 -16 22 c-14 21 -41 22 -28 1
3 -5 10 -7 15 -4 16 10 10 -2 -8 -16 -10 -7 -15 -9 -10 -4 4 4 -3 19 -15 32
-12 12 -18 26 -15 30 4 4 -5 19 -20 35 -15 15 -23 28 -20 28 4 0 4 8 -2 18 -5
9 -10 49 -12 87 -2 39 -7 72 -11 75 -4 3 -9 15 -11 25 -1 11 -7 26 -12 34 -4
8 -10 72 -12 143 l-3 128 70 0 70 0 1 -57z m3715 -90 c-10 -10 -19 5 -10 18 6
11 8 11 12 0 2 -7 1 -15 -2 -18z m-9 -143 c-3 -11 -1 -23 4 -26 16 -9 11 -64
-6 -64 -18 0 -19 4 -2 30 9 16 9 22 0 28 -11 7 -7 52 4 52 3 0 3 -9 0 -20z m8
-119 c-3 -6 -11 -11 -16 -11 -5 0 -4 6 3 14 14 16 24 13 13 -3z m-171 -216
c-4 -8 -8 -15 -10 -15 -2 0 -4 7 -4 15 0 8 4 15 10 15 5 0 7 -7 4 -15z m110
-108 c-21 -53 -46 -106 -56 -119 l-18 -23 9 25 c5 14 27 68 50 120 22 52 41
102 42 110 1 11 2 11 6 -2 2 -9 -13 -59 -33 -111z m-21 97 c7 -8 -13 -54 -25
-54 -4 0 -8 -7 -8 -15 0 -8 -4 -15 -9 -15 -15 0 -3 44 15 57 9 6 13 16 9 22
-7 12 7 15 18 5z m-3589 -19 c3 3 2 0 -2 -5 -11 -13 -44 -2 -36 12 4 5 11 5
18 -1 7 -6 16 -9 20 -6z m10 -37 c-5 -8 -2 -9 9 -5 10 3 17 3 17 -2 0 -8 -27
-19 -67 -27 -7 -1 -13 2 -13 7 0 5 0 12 -1 17 0 4 10 10 23 14 35 9 40 9 32
-4z m3508 -118 c-6 -11 -12 -27 -12 -35 0 -8 -4 -15 -10 -15 -13 0 -13 31 0
66 8 21 13 25 23 15 9 -9 9 -16 -1 -31z m-3512 -3 c0 -5 -4 -5 -10 -2 -5 3
-10 14 -10 23 0 15 2 15 10 2 5 -8 10 -19 10 -23z m3425 -47 c3 -5 1 -10 -4
-10 -6 0 -11 5 -11 10 0 6 2 10 4 10 3 0 8 -4 11 -10z m-3328 -17 c-7 -11 19
-33 27 -25 4 3 4 -1 0 -11 -5 -15 -9 -15 -34 6 -28 23 -30 37 -4 37 8 0 13 -3
11 -7z m-27 -44 c6 -11 9 -25 6 -32 -2 -7 -8 -1 -12 12 -6 22 -8 22 -20 7 -7
-11 -14 -13 -19 -7 -6 11 13 40 27 41 4 0 12 -9 18 -21z m3390 11 c0 -5 -2
-10 -4 -10 -3 0 -8 5 -11 10 -3 6 -1 10 4 10 6 0 11 -4 11 -10z m-3231 -80
c23 -44 38 -80 34 -80 -4 0 -3 -4 4 -8 6 -4 21 -28 32 -54 18 -42 18 -45 2
-41 -9 2 -34 39 -54 84 -21 43 -43 79 -48 79 -6 0 -8 4 -5 9 3 5 -1 22 -9 37
-8 16 -15 35 -15 42 0 30 21 6 59 -68z m3146 70 c3 -5 1 -10 -4 -10 -6 0 -11
5 -11 10 0 6 2 10 4 10 3 0 8 -4 11 -10z m65 -30 c0 -5 -4 -10 -10 -10 -5 0
-10 5 -10 10 0 6 5 10 10 10 6 0 10 -4 10 -10z m-3380 -20 c0 -5 -4 -10 -10
-10 -5 0 -10 5 -10 10 0 6 5 10 10 10 6 0 10 -4 10 -10z m106 -5 c4 -8 11 -12
17 -8 6 4 8 0 4 -11 -4 -10 -1 -19 8 -22 15 -6 22 -54 7 -54 -7 0 -36 40 -37
52 -1 19 -15 17 -30 -6 -34 -52 -48 -23 -15 32 21 35 37 41 46 17z m3252 -25
c-2 -7 -10 1 -17 16 -12 27 -11 28 4 12 10 -9 16 -21 13 -28z m-68 -41 c0 -6
-4 -7 -10 -4 -5 3 -10 11 -10 16 0 6 5 7 10 4 6 -3 10 -11 10 -16z m-3174 -29
c1 -23 1 -23 -12 -5 -17 23 -18 38 -1 33 6 -3 13 -15 13 -28z m3208 12 c2 -4
1 -14 -3 -21 -6 -9 -10 -7 -14 8 -5 20 7 29 17 13z m-3208 -85 c-1 -35 -4 -41
-13 -31 -16 15 -16 16 -3 48 13 36 17 32 16 -17z m55 8 c1 -15 -21 -18 -22 -3
0 7 -4 4 -9 -7 -8 -18 -9 -17 -7 6 1 22 5 25 20 20 10 -4 18 -11 18 -16z
m3021 3 c-7 -7 -12 -8 -12 -2 0 14 12 26 19 19 2 -3 -1 -11 -7 -17z m86 -5
c-2 -14 -8 -28 -14 -30 -6 -2 -10 6 -8 19 1 13 3 26 3 31 1 4 6 7 12 7 6 0 9
-12 7 -27z m-2889 -508 c70 -74 177 -167 217 -188 33 -19 45 -37 23 -37 -39 0
-265 212 -353 330 l-48 65 57 -60 c31 -33 78 -82 104 -110z m324 -59 c19 -15
22 -54 6 -90 -10 -20 -18 -24 -55 -23 -49 0 -53 10 -34 76 14 51 46 65 83 37z
m1931 -79 c17 -36 17 -40 2 -55 -26 -27 -70 -5 -74 36 -7 69 41 81 72 19z
m-1556 -237 c13 0 13 -3 4 -12 -10 -10 -15 -10 -22 2 -5 8 -9 20 -9 25 0 6 3
4 6 -2 2 -7 12 -13 21 -13z m782 -20 c-16 -38 -27 -38 -27 0 0 17 3 26 7 20 5
-8 9 -6 14 6 3 9 9 14 13 11 3 -4 0 -20 -7 -37z m170 30 c-8 -5 -22 -10 -30
-10 -13 0 -13 1 0 10 8 5 22 10 30 10 13 0 13 -1 0 -10z m-513 -36 c-3 -3 -12
-4 -19 -1 -8 3 -5 6 6 6 11 1 17 -2 13 -5z m60 -10 c-3 -3 -12 -4 -19 -1 -8 3
-5 6 6 6 11 1 17 -2 13 -5z m131 -1 c-10 -2 -26 -2 -35 0 -10 3 -2 5 17 5 19
0 27 -2 18 -5z m532 -23 c13 -8 13 -10 -2 -10 -9 0 -20 5 -23 10 -8 13 5 13
25 0z m-185 -10 c-3 -5 -13 -10 -21 -10 -8 0 -12 5 -9 10 3 6 13 10 21 10 8 0
12 -4 9 -10z m-738 -66 c-3 -3 -12 -4 -19 -1 -8 3 -5 6 6 6 11 1 17 -2 13 -5z
m408 -4 c-3 -5 -12 -10 -20 -10 -8 0 -17 5 -20 10 -4 6 5 10 20 10 15 0 24 -4
20 -10z m308 -7 c-7 -2 -19 -2 -25 0 -7 3 -2 5 12 5 14 0 19 -2 13 -5z m-316
-39 c-3 -3 -12 -4 -19 -1 -8 3 -5 6 6 6 11 1 17 -2 13 -5z"/>
<path d="M470 2210 c1 -28 25 -66 34 -52 3 6 -1 13 -10 16 -9 3 -14 12 -11 19
3 8 1 20 -4 28 -6 10 -9 7 -9 -11z"/>
<path d="M487 2110 c3 -11 10 -23 15 -26 6 -4 7 2 3 16 -6 19 -4 22 9 17 9 -4
16 -2 16 3 0 6 -11 10 -24 10 -19 0 -23 -4 -19 -20z"/>
<path d="M520 1925 c-14 -8 -20 -14 -13 -15 6 0 13 -10 16 -22 3 -22 4 -22 12
-4 6 13 5 21 -4 24 -8 3 -6 8 6 18 23 17 15 17 -17 -1z"/>
<path d="M560 1750 c0 -5 7 -7 15 -4 8 4 15 8 15 10 0 2 -7 4 -15 4 -8 0 -15
-4 -15 -10z"/>
<path d="M3758 4373 c7 -3 16 -2 19 1 4 3 -2 6 -13 5 -11 0 -14 -3 -6 -6z"/>
<path d="M3834 4354 c22 -8 41 -12 44 -9 6 6 -45 25 -66 24 -9 0 1 -7 22 -15z"/>
<path d="M2120 4335 c-223 -33 -555 -183 -752 -341 -114 -92 -322 -303 -388
-394 -66 -90 -192 -320 -176 -320 2 0 14 15 26 33 24 36 23 32 -8 -35 -24 -51
-37 -63 -27 -25 3 12 -4 5 -15 -17 -14 -25 -20 -47 -16 -65 5 -17 4 -21 -2
-12 -12 17 -16 11 -52 -96 -36 -108 -55 -204 -75 -377 -43 -365 50 -839 220
-1127 21 -35 52 -89 70 -120 35 -61 135 -192 142 -186 2 3 -6 22 -19 43 l-22
39 31 -32 c23 -24 41 -33 67 -34 58 -3 60 -3 76 -18 17 -16 23 -93 10 -127 -5
-11 -5 -25 -2 -31 7 -10 150 -131 199 -169 48 -36 235 -146 291 -171 91 -40
263 -86 337 -90 39 -2 102 -9 140 -16 94 -16 297 -12 398 8 178 35 364 110
518 210 137 89 223 170 101 95 -67 -41 -122 -63 -122 -49 0 8 -4 9 -13 0 -8
-6 -17 -8 -20 -4 -4 3 -7 1 -7 -5 0 -6 -19 -16 -42 -23 -24 -6 -50 -17 -58
-24 -22 -19 -90 -47 -123 -50 -25 -3 -26 -2 -10 10 30 21 246 151 279 168 35
18 54 67 25 67 -33 -1 -103 -21 -129 -38 -28 -18 -79 -25 -62 -8 12 12 13 27
3 24 -5 0 -19 4 -33 10 -24 10 -24 11 -3 11 43 2 137 116 153 185 9 42 -3 48
-19 9 -20 -55 -71 -95 -71 -57 0 8 -13 27 -30 40 -16 14 -29 30 -27 36 1 6 -9
14 -23 18 -14 3 23 4 83 2 93 -4 107 -3 107 11 0 9 10 21 21 28 17 9 20 8 14
-3 -3 -7 4 0 17 17 36 46 118 281 120 346 1 22 5 25 29 21 21 -3 31 -13 43
-42 18 -45 53 -62 72 -35 8 10 11 22 8 26 -3 5 0 9 6 9 6 0 10 10 8 22 -2 13
-9 22 -16 20 -8 -1 -11 2 -7 8 3 6 10 8 15 5 11 -7 21 21 14 40 -4 8 1 17 10
21 9 3 16 13 16 21 0 9 -5 11 -12 7 -9 -6 -9 -3 1 9 7 9 11 24 7 32 -3 9 -2
13 4 10 6 -3 10 3 10 14 0 12 5 21 11 21 6 0 8 -7 5 -16 -4 -9 -2 -13 5 -8 6
3 9 17 6 30 -2 13 0 21 4 18 10 -6 12 17 3 40 -12 32 -124 11 -141 -27 -6 -12
-19 -41 -28 -64 -15 -37 -20 -41 -33 -30 -9 6 -13 7 -9 1 6 -11 -7 -14 -53
-14 -18 0 -21 -3 -11 -9 9 -6 10 -11 2 -15 -18 -11 -3 -25 22 -20 21 4 21 4 1
-5 -28 -13 -33 -29 -27 -90 5 -54 -3 -76 -77 -206 -29 -52 -87 -111 -127 -131
-35 -17 -147 -24 -151 -9 -1 6 15 16 37 23 44 15 121 77 121 97 0 8 5 17 12
21 7 4 8 3 4 -4 -4 -7 -5 -12 -1 -12 3 0 22 26 42 58 20 31 39 59 42 62 12 10
10 49 -2 53 -6 2 -4 3 6 2 19 -3 22 13 6 35 -9 12 -10 12 -5 -4 5 -15 2 -17
-18 -12 -14 3 -28 1 -32 -6 -4 -7 -3 -8 4 -4 7 4 12 1 12 -8 0 -9 5 -16 11
-16 5 0 7 -5 3 -11 -4 -7 -17 1 -36 22 -16 19 -26 26 -22 17 4 -13 1 -18 -10
-18 -9 0 -21 -11 -26 -25 -5 -14 -15 -25 -22 -25 -9 0 -8 3 2 10 8 5 11 10 7
10 -5 0 -1 10 7 21 17 25 11 55 -9 39 -10 -8 -13 -6 -11 7 0 10 -4 17 -10 16
-15 -3 -14 28 2 51 11 16 11 21 -2 31 -14 10 -14 13 3 26 17 13 17 13 3 -6
-14 -19 -14 -19 3 -6 12 10 15 17 8 24 -7 7 -6 16 6 29 16 17 9 24 -19 19 -5
0 -8 3 -8 9 0 14 12 12 39 -7 14 -9 21 -11 17 -4 -5 8 2 10 26 7 33 -4 33 -4
6 7 -16 6 -28 14 -28 19 0 11 7 10 41 -7 36 -19 46 -5 29 41 -11 30 -4 25 27
-23 12 -17 13 -17 32 4 25 30 29 29 24 -4 -4 -22 -2 -25 6 -13 8 12 11 8 11
-17 0 -31 2 -33 34 -33 21 0 36 6 40 15 3 9 12 12 23 8 15 -6 16 -4 6 9 -7 8
-11 28 -9 45 2 19 -1 30 -10 30 -9 0 -10 -5 -3 -18 7 -14 6 -17 -5 -13 -8 3
-13 13 -11 22 2 9 4 21 4 25 1 5 6 5 13 1 7 -4 8 -3 4 4 -4 6 -13 9 -20 6 -14
-5 -29 10 -39 38 -4 12 -2 15 10 11 12 -5 13 -2 6 13 -17 32 -23 92 -10 98 8
3 6 9 -6 16 -9 6 -14 16 -11 22 4 6 0 14 -7 19 -12 7 -11 9 1 9 11 0 12 2 3 8
-7 4 -14 18 -16 31 -2 12 -10 27 -18 32 -11 8 -10 9 6 7 23 -4 27 20 7 44 -8
9 -11 22 -7 27 3 6 4 11 1 11 -3 0 -10 -10 -17 -21 -6 -12 -7 -19 -1 -15 5 3
16 -2 23 -12 12 -15 12 -16 -2 -5 -9 7 -18 11 -21 8 -3 -3 -11 2 -19 12 -12
14 -12 16 0 8 9 -5 12 -4 7 3 -4 6 -13 9 -21 6 -9 -4 -16 3 -21 20 -3 14 -10
26 -15 26 -6 0 -5 10 2 22 10 19 9 20 -7 14 -14 -5 -11 2 11 26 16 18 33 37
37 42 3 4 11 5 18 1 8 -5 7 -11 -2 -23 -11 -13 -11 -14 0 -8 7 4 20 2 28 -5
12 -10 15 -10 12 2 -2 8 3 13 11 11 7 -1 20 3 29 10 13 11 15 11 8 -2 -4 -9
-2 -8 7 2 8 10 17 15 20 11 4 -3 7 1 7 10 0 9 -5 19 -12 23 -7 5 -8 3 -3 -6 5
-8 4 -11 -3 -6 -6 4 -9 12 -6 19 5 14 64 17 64 3 0 -6 5 -5 11 1 6 6 18 9 25
6 8 -3 14 -1 14 5 0 5 -12 9 -27 8 -15 -1 -28 4 -28 11 0 6 -3 14 -7 18 -4 4
-4 14 -1 23 4 14 2 14 -11 -2 -14 -17 -15 -16 -26 23 -6 23 -15 41 -20 41 -6
0 -10 4 -10 10 0 5 8 7 18 3 15 -6 14 -3 -3 18 -11 13 -13 18 -4 12 12 -10 18
-10 27 -1 10 10 18 6 40 -15 22 -23 24 -27 7 -22 -15 5 -17 4 -6 -3 8 -6 19
-8 26 -6 6 3 26 -13 44 -36 34 -43 57 -49 108 -29 37 14 103 21 103 10 0 -5
-7 -28 -15 -52 -9 -24 -14 -52 -12 -61 3 -9 -2 -19 -11 -23 -8 -3 -12 -8 -10
-11 3 -3 -1 -26 -8 -51 -8 -25 -14 -68 -14 -94 0 -26 -4 -50 -9 -54 -5 -3 -12
-19 -16 -35 -4 -17 -15 -35 -25 -40 -27 -15 -75 -60 -64 -61 5 0 0 -4 -11 -9
-13 -6 16 -9 82 -9 l102 -1 7 36 c5 26 9 32 15 22 6 -8 9 49 8 140 -1 122 -4
154 -15 159 -18 7 -18 22 0 42 12 14 13 34 5 120 -5 57 -14 111 -19 120 -5 9
-10 11 -10 4 0 -24 -139 -101 -154 -86 -9 10 -7 25 3 19 5 -3 12 1 15 10 3 8
2 13 -2 10 -4 -2 -8 11 -8 30 0 37 7 42 26 19 12 -14 7 -20 -14 -16 -5 1 -4
-5 4 -13 14 -17 25 -22 15 -7 -3 5 -1 12 5 16 6 4 7 12 3 18 -11 18 -14 49 -5
43 5 -3 9 1 9 9 0 8 -5 11 -11 8 -6 -4 -19 -8 -28 -8 -14 -1 -15 1 -6 12 8 11
7 12 -6 7 -12 -5 -15 -2 -10 10 4 11 2 16 -7 14 -8 -2 -13 3 -11 10 1 8 -2 11
-8 7 -5 -3 -10 -1 -10 5 0 7 -7 9 -15 6 -11 -4 -15 0 -13 12 2 12 -3 17 -19
16 -13 0 -23 3 -23 8 0 4 5 8 10 8 6 0 10 5 10 11 0 5 -4 8 -8 5 -4 -2 -8 4
-8 14 0 10 4 16 8 14 11 -7 10 -1 -3 33 -8 22 -8 25 2 16 12 -12 39 -7 39 9 0
5 -5 6 -12 2 -6 -4 -8 -3 -4 4 3 6 15 9 26 7 12 -2 18 0 16 4 -8 12 29 43 39
34 4 -5 5 -2 1 5 -4 7 -11 10 -16 7 -5 -3 -11 3 -13 12 -4 17 -5 17 -6 1 0
-10 -5 -18 -11 -18 -5 0 -7 6 -4 14 3 8 0 17 -7 22 -7 4 -10 3 -6 -2 3 -6 1
-16 -4 -24 -9 -13 -10 -13 -8 0 3 27 -1 41 -9 36 -10 -6 -9 25 2 42 5 8 13 9
24 3 14 -7 17 -4 18 15 2 18 -3 24 -19 24 -11 0 -18 2 -15 5 3 3 35 6 71 8 47
1 63 -1 56 -9 -7 -8 2 -9 31 -4 22 4 41 6 41 4 5 -15 4 -31 -4 -41 -5 -7 -7
-19 -4 -27 3 -8 -2 -16 -14 -19 -20 -5 -26 7 -9 18 5 3 6 13 3 22 -4 10 -2 14
4 10 5 -3 10 0 10 8 0 11 -4 12 -14 4 -7 -7 -12 -19 -11 -27 3 -15 -47 -36
-64 -26 -12 7 -10 -24 3 -49 6 -12 25 -36 42 -54 25 -27 28 -35 17 -48 -7 -8
-10 -18 -6 -22 3 -3 6 -2 6 4 0 6 8 10 17 9 10 0 18 4 18 9 0 11 45 84 45 74
0 -13 -49 -124 -54 -121 -3 1 -6 0 -6 -3 0 -4 6 -6 13 -4 24 7 39 5 44 -8 5
-12 7 -12 14 -1 5 7 9 18 9 23 0 6 -4 4 -9 -3 -6 -10 -10 -7 -13 12 -3 15 -1
29 4 32 4 3 7 2 6 -3 -3 -7 7 -15 15 -12 45 13 57 0 57 -63 0 -27 2 -28 48
-28 34 0 43 -3 32 -10 -8 -5 -27 -10 -43 -10 -15 0 -35 -9 -45 -21 -9 -12 -22
-27 -29 -34 -10 -10 -7 -18 13 -40 49 -53 56 -72 59 -157 2 -46 3 -89 4 -97 1
-11 13 -12 56 -7 32 3 55 2 55 -3 0 -5 -26 -13 -57 -17 -32 -4 -51 -9 -42 -11
12 -3 20 -24 28 -73 22 -133 9 -224 -33 -240 -18 -7 -16 -9 16 -15 49 -9 85 0
93 25 3 11 12 19 18 17 9 -1 13 36 15 137 2 123 1 140 -15 152 -17 13 -17 14
1 8 24 -9 37 13 23 43 -14 31 -3 39 21 16 10 -10 27 -23 38 -30 18 -11 18 -12
-2 -12 -41 -2 -50 -35 -44 -173 5 -139 14 -159 72 -173 35 -9 41 5 68 164 23
137 25 193 8 222 -10 17 -10 23 0 26 6 3 12 12 12 21 0 15 -2 15 -10 2 -9 -13
-11 -13 -20 0 -5 8 -8 20 -5 27 2 7 0 15 -5 18 -13 8 -13 45 0 45 6 0 10 5 10
11 0 5 -5 7 -12 3 -7 -4 -8 -3 -4 4 4 7 11 12 15 12 13 0 19 -59 7 -64 -7 -3
-6 -5 1 -5 7 -1 10 -8 7 -16 -4 -8 -1 -15 5 -15 15 0 14 84 -3 216 -17 124
-34 212 -47 234 -11 20 -11 2 0 -38 9 -30 3 -41 -13 -25 -15 16 -46 11 -60 -8
l-14 -21 -7 21 c-8 25 3 64 16 56 5 -3 6 1 3 9 -3 9 -10 16 -15 16 -6 0 -4 6
3 14 9 9 20 11 36 5 22 -9 22 -8 18 62 -2 38 -8 75 -13 82 -5 7 -18 35 -28 62
-10 28 -24 57 -31 66 -8 9 -11 19 -7 22 3 4 2 7 -4 7 -5 0 -10 6 -10 13 0 20
-86 166 -95 161 -4 -3 -8 4 -8 14 0 54 -298 394 -349 398 -9 1 -50 21 -91 44
-111 61 -305 143 -400 169 -19 5 -44 12 -54 17 -13 5 -17 4 -13 -4 4 -6 22
-14 40 -17 59 -13 177 -69 177 -86 0 -8 5 -20 12 -27 7 -7 13 -27 13 -45 1
-22 6 -31 16 -29 12 3 12 1 1 -10 -11 -11 -15 -10 -23 5 -6 9 -15 15 -20 12
-5 -4 -6 -11 -3 -17 5 -8 1 -9 -12 -5 -13 5 -11 0 9 -18 15 -14 24 -25 18 -25
-5 0 -13 5 -16 10 -4 6 -11 8 -16 5 -5 -4 -9 -3 -9 2 -1 15 -48 44 -55 33 -4
-6 -1 -9 6 -8 6 2 14 -3 16 -9 3 -7 0 -13 -7 -13 -6 0 -8 -5 -5 -10 5 -8 12
-7 23 2 12 10 14 10 8 1 -4 -7 -3 -13 3 -13 5 0 9 -9 8 -20 -1 -19 -12 -18
-12 2 0 6 -7 12 -16 13 -12 2 -16 -7 -18 -41 0 -24 3 -44 8 -44 4 0 6 11 3 25
-2 14 0 25 5 25 5 0 9 -15 9 -34 0 -23 -4 -32 -13 -29 -7 3 -13 0 -13 -5 0 -6
-9 -10 -19 -9 -15 1 -17 4 -9 14 5 7 14 11 18 8 5 -3 6 4 3 15 -7 24 -21 27
-19 3 0 -10 -6 -18 -14 -18 -16 0 -18 -19 -6 -47 5 -10 13 -15 20 -11 6 3 7 2
3 -2 -15 -17 -36 -14 -29 3 5 14 3 15 -9 5 -11 -9 -19 -9 -26 -2 -8 8 -13 7
-18 -2 -6 -8 -4 -10 5 -4 9 6 10 2 5 -16 -4 -13 -13 -27 -19 -31 -12 -8 -2
-21 19 -24 8 -1 15 3 15 9 0 7 4 5 10 -3 5 -8 15 -15 22 -15 7 0 13 -9 13 -20
0 -14 6 -19 20 -17 18 2 17 0 -5 -18 -14 -12 -20 -19 -14 -16 7 3 17 -1 23 -8
10 -12 8 -14 -13 -12 -14 2 -23 -1 -20 -6 3 -4 -6 -22 -20 -39 -31 -37 -33
-60 -6 -84 19 -17 34 -17 99 1 22 7 23 6 10 -8 -7 -9 -16 -14 -19 -13 -4 2 -6
-7 -6 -20 0 -13 4 -21 8 -19 5 3 5 11 1 17 -4 7 1 6 11 -2 13 -11 14 -16 4
-23 -10 -6 -10 -10 2 -17 8 -5 18 -7 24 -4 5 3 6 1 2 -5 -4 -6 -14 -8 -23 -5
-9 4 -14 2 -10 -3 3 -6 -8 -9 -26 -8 -18 1 -35 -2 -38 -8 -4 -6 -15 -7 -26 -4
-24 8 -39 72 -21 93 9 11 8 13 -1 11 -8 -2 -15 4 -17 12 -13 62 -14 71 -4 65
11 -7 14 8 3 18 -3 4 -12 -2 -20 -13 -11 -15 -11 -24 -2 -41 6 -13 7 -19 1
-15 -6 3 -18 -1 -27 -11 -16 -16 -16 -17 1 -24 18 -7 18 -8 -1 -10 -11 -1 -27
-3 -35 -4 -8 -1 -22 -3 -30 -4 -11 -1 -8 -8 11 -24 29 -25 32 -60 7 -65 -12
-2 -18 3 -18 16 0 11 -3 22 -7 24 -5 2 -18 24 -30 51 -14 28 -33 51 -47 57
-13 5 -42 26 -64 47 -47 45 -80 48 -58 5 18 -35 56 -69 81 -74 37 -7 13 -98
-26 -98 -25 0 -36 -27 -20 -52 9 -15 9 -23 0 -34 -6 -7 -14 -12 -18 -10 -24
15 -67 -84 -105 -244 -23 -100 -24 -122 -4 -125 10 -2 21 2 25 7 4 7 1 8 -8 4
-8 -4 -3 2 10 13 12 12 27 18 32 15 5 -3 9 7 9 22 0 24 -2 25 -17 13 -15 -12
-16 -12 -8 1 6 8 10 20 10 25 0 6 10 11 23 11 34 2 35 3 22 19 -7 8 -9 15 -5
15 4 0 2 6 -4 14 -10 12 -8 17 9 26 19 10 21 9 19 -12 -2 -13 0 -28 4 -35 4
-6 3 -14 -3 -18 -6 -4 -8 -10 -5 -14 2 -5 -3 -8 -13 -7 -9 0 -17 -3 -17 -9 0
-5 4 -9 10 -7 5 2 4 -2 -2 -9 -7 -7 -13 -18 -13 -24 1 -5 9 0 19 12 10 12 21
19 24 16 4 -3 5 3 3 13 -2 11 2 28 10 38 13 18 15 18 33 2 18 -16 19 -16 19 9
0 14 -4 28 -9 31 -5 3 -7 -1 -4 -8 3 -8 -3 -13 -19 -13 -15 0 -24 6 -24 15 1
23 -20 70 -32 71 -5 1 -14 2 -19 3 -15 2 -25 16 -12 16 9 0 11 8 8 23 -3 12 1
33 8 47 11 19 14 21 15 8 0 -10 6 -18 14 -18 8 0 27 -5 43 -11 21 -8 24 -12
13 -19 -8 -5 -17 -6 -20 -2 -3 4 -14 9 -25 10 -11 2 -23 9 -26 14 -4 7 -9 7
-13 0 -3 -6 -2 -13 3 -17 6 -3 8 -12 5 -19 -3 -7 6 -20 20 -30 14 -9 23 -22
20 -29 -2 -7 2 -21 10 -32 13 -18 14 -17 14 8 0 15 -4 30 -8 32 -13 8 14 55
28 50 7 -3 10 -1 7 4 -10 17 11 20 39 5 35 -18 57 -18 34 0 -25 19 -23 22 25
38 62 21 160 -8 114 -33 -9 -6 -15 -14 -12 -18 2 -5 -2 -14 -10 -21 -17 -14
-20 -56 -4 -65 6 -5 3 -13 -10 -22 -17 -11 -21 -25 -21 -69 0 -35 -4 -53 -10
-49 -6 4 -8 10 -5 15 9 15 -24 4 -47 -16 l-23 -19 18 21 c9 11 14 24 10 29 -5
4 -2 5 5 1 7 -4 15 -1 18 9 6 13 8 14 15 3 6 -9 9 -2 9 19 0 41 -27 59 -54 35
-11 -9 -16 -11 -12 -4 6 10 -2 9 -25 -3 -39 -20 -52 -31 -26 -22 11 4 16 3 12
-4 -4 -6 -13 -8 -21 -5 -8 3 -44 -16 -81 -41 -88 -60 -114 -84 -106 -96 4 -6
0 -8 -10 -4 -13 5 -17 1 -17 -18 0 -19 -4 -23 -17 -18 -10 4 -21 11 -25 17 -8
12 -176 18 -197 6 -18 -9 -61 16 -57 33 1 7 1 8 -2 4 -2 -4 -11 -2 -20 5 -13
12 -14 10 -3 -9 6 -13 15 -23 19 -23 4 0 13 -4 21 -9 12 -8 11 -13 -6 -35 -11
-14 -23 -22 -27 -18 -4 3 -4 -2 0 -12 6 -15 4 -17 -6 -11 -9 5 -11 4 -6 -4 10
-16 -3 -53 -16 -45 -6 4 -8 3 -5 -3 4 -6 1 -24 -5 -41 -11 -28 -13 -29 -25
-14 -12 15 -13 14 -3 -6 14 -28 -6 -94 -21 -70 -7 10 -11 10 -21 -1 -7 -8 -8
-11 -2 -8 20 12 24 -22 8 -62 -17 -42 -16 -102 2 -108 6 -2 11 3 11 12 0 8 -5
15 -11 15 -6 0 -5 4 3 9 7 5 23 6 34 3 20 -5 20 -5 -2 -14 -12 -4 -20 -12 -16
-17 9 -16 -15 -23 -32 -9 -9 7 -17 12 -17 10 -1 -2 -14 1 -29 7 -16 6 -82 11
-147 11 -85 0 -120 4 -124 13 -3 6 -3 2 0 -10 3 -15 -1 -26 -15 -35 -20 -12
-21 -22 -21 -149 l0 -135 31 -23 c29 -22 38 -23 156 -19 123 3 124 3 120 26
-3 18 -2 20 9 11 11 -9 15 -7 20 5 8 20 24 21 24 1 0 -8 6 -15 13 -15 7 0 18
-9 24 -20 10 -15 26 -20 80 -23 l68 -3 -68 -2 c-50 -1 -68 -5 -64 -14 4 -13
-20 -37 -36 -38 -5 0 -6 9 -2 20 5 15 3 18 -9 14 -9 -3 -14 -9 -12 -13 3 -4 6
-56 7 -117 2 -138 7 -174 24 -168 7 3 16 0 21 -7 4 -8 3 -10 -4 -5 -7 4 -12 4
-12 -1 0 -15 53 -33 97 -33 32 0 41 3 37 14 -3 7 5 33 17 57 32 59 31 76 -6
115 -18 19 -28 34 -22 34 5 0 3 8 -4 18 -7 9 5 0 27 -21 22 -20 42 -35 45 -33
2 3 23 6 45 9 54 5 84 33 87 82 2 32 -2 40 -18 45 -13 3 -20 13 -20 31 0 34
45 80 53 54 2 -5 10 -17 18 -26 12 -14 11 -15 -16 -11 -25 4 -30 1 -30 -16 0
-11 6 -25 14 -31 9 -8 14 -36 15 -84 1 -40 6 -99 10 -132 l8 -60 2 58 c0 31 4
57 9 57 4 0 29 -21 55 -45 53 -50 54 -50 54 -32 1 33 26 99 48 125 29 35 35
111 10 136 -8 8 -11 17 -6 20 16 10 32 -22 38 -78 3 -31 9 -53 13 -51 5 3 7
-3 5 -12 -1 -10 -8 -17 -14 -15 -6 1 -11 -4 -11 -12 0 -15 16 -16 40 -1 13 8
13 7 1 -8 -7 -9 -22 -17 -32 -17 -10 0 -21 -5 -25 -12 -4 -6 -3 -8 3 -5 6 4
13 -3 16 -15 7 -27 -18 -58 -46 -58 -17 0 -19 -5 -13 -40 l6 -40 -55 0 c-30 0
-55 -4 -55 -10 0 -6 26 -10 59 -10 52 0 62 -3 80 -26 11 -14 23 -35 27 -46 3
-11 17 -36 30 -55 13 -20 24 -43 24 -52 0 -9 9 -34 20 -56 11 -22 20 -52 20
-67 0 -24 -4 -27 -45 -34 -25 -3 -42 -10 -40 -15 3 -4 -18 -10 -47 -12 -39 -2
-30 -4 32 -5 47 -1 81 -6 75 -10 -5 -4 -19 -24 -29 -45 -24 -46 -83 -101 -134
-125 -42 -19 -62 -36 -62 -51 0 -16 35 -31 74 -31 42 0 56 -15 15 -16 -36 -1
-38 -3 -43 -44 -8 -71 -68 -67 -85 5 l-9 40 -1 -42 c-1 -38 -5 -44 -36 -59
-19 -9 -32 -20 -29 -25 3 -5 42 -10 87 -11 46 -1 63 -3 40 -5 -30 -3 -46 -10
-54 -24 -13 -25 -3 -93 17 -110 23 -19 18 -54 -8 -56 -12 -1 -27 2 -33 7 -6 5
-67 12 -134 14 -148 7 -206 15 -176 27 14 5 5 8 -30 8 -34 1 -76 13 -130 36
-44 19 -83 35 -87 35 -19 0 -245 133 -266 156 -38 44 -16 40 30 -5 32 -30 51
-41 75 -41 17 0 33 -4 35 -9 2 -6 18 -7 37 -3 l34 7 -27 18 c-14 10 -31 15
-36 12 -6 -4 -7 3 -1 17 12 32 31 30 64 -6 16 -17 26 -25 22 -18 -3 6 -1 12 5
12 27 0 -39 59 -85 76 -39 14 -45 19 -30 23 22 6 33 45 15 56 -5 3 -10 12 -10
18 1 7 17 -6 36 -28 31 -35 35 -37 30 -15 -4 16 1 11 12 -12 22 -47 103 -105
115 -82 11 20 0 34 -26 34 -12 0 -29 5 -37 10 -11 7 -7 10 17 10 20 0 40 8 53
22 l20 22 28 -21 c15 -11 27 -24 26 -29 -2 -14 29 -33 51 -33 18 0 18 1 -4 13
l-23 13 23 6 c13 4 41 7 62 7 24 0 40 5 43 15 8 20 63 20 70 0 7 -16 82 -20
118 -6 16 6 14 11 -20 40 l-38 34 22 17 21 18 -36 48 c-52 69 -72 83 -118 85
-40 2 -40 2 10 9 l50 7 -42 1 c-48 2 -73 -5 -73 -22 0 -13 -170 -9 -185 5 -5
5 -19 9 -30 9 -13 0 -22 6 -22 15 0 12 15 15 71 16 39 1 61 4 49 6 -16 3 -23
12 -23 26 0 12 -9 39 -20 60 -11 20 -20 46 -20 58 0 30 59 151 71 144 5 -4 7
4 6 17 -4 22 -8 23 -113 28 l-109 5 97 8 c54 5 102 5 108 2 13 -8 49 52 45 73
-2 10 -4 24 -5 32 -1 8 -6 4 -10 -10 -8 -23 -8 -24 -9 -3 -1 12 -21 42 -46 66
-25 25 -45 54 -45 66 0 24 29 63 42 55 4 -3 5 2 2 11 -4 11 -2 14 9 9 8 -3 18
0 22 6 3 6 1 9 -6 8 -6 -2 -14 3 -17 11 -3 8 0 11 7 7 6 -4 11 -2 11 3 0 6
-22 11 -52 11 -29 1 -84 5 -123 10 -67 8 -71 8 -96 -16 -14 -13 -28 -21 -32
-18 -4 4 2 13 13 21 28 20 27 47 -2 39 -13 -3 -26 -6 -30 -6 -5 0 -8 -7 -8
-17 0 -15 -1 -15 -18 0 -21 19 -48 22 -57 7 -4 -6 -7 -23 -7 -39 -1 -23 -4
-26 -13 -17 -7 6 -11 14 -9 17 2 3 -9 6 -24 5 -20 -1 -26 -6 -24 -18 3 -20
-14 -24 -21 -5 -3 6 -6 2 -6 -11 -1 -13 3 -21 8 -18 11 7 8 -20 -3 -31 -4 -4
-6 -2 -4 6 1 8 -6 17 -16 19 -14 3 -17 0 -13 -11 4 -12 0 -15 -15 -12 -25 5
-34 13 -24 22 4 4 10 3 14 -3 4 -6 14 -3 25 8 17 18 16 18 -10 11 -16 -3 -37
-6 -48 -6 -11 1 -14 -1 -7 -4 17 -7 15 -23 -3 -23 -21 0 -19 -23 5 -38 11 -7
17 -18 14 -27 -5 -12 -9 -13 -20 -4 -11 9 -18 8 -29 -1 -9 -7 -13 -15 -10 -18
3 -3 0 -11 -6 -19 -9 -9 -8 -13 0 -14 34 -4 81 -30 81 -46 0 -7 5 -13 11 -13
5 0 8 4 4 9 -3 5 0 13 6 17 8 4 9 3 5 -4 -6 -11 13 -17 37 -13 5 1 5 -3 2 -9
-4 -6 -13 -9 -19 -7 -7 3 -19 1 -27 -5 -12 -8 -12 -9 1 -5 8 2 23 0 32 -4 12
-7 20 -4 26 7 6 11 12 13 16 6 3 -6 2 -13 -4 -17 -16 -10 -12 -25 5 -19 10 4
15 0 15 -12 0 -16 -2 -17 -10 -4 -8 13 -10 13 -10 1 0 -11 -4 -9 -15 5 -8 10
-15 14 -15 8 0 -20 24 -31 59 -29 l34 2 -23 -19 c-12 -10 -28 -18 -34 -18 -7
0 -23 -11 -35 -24 -15 -15 -29 -22 -40 -18 -14 5 -14 4 -1 -13 13 -17 13 -18
-1 -13 -12 5 -15 -1 -12 -28 1 -19 5 -40 8 -47 4 -7 1 -5 -7 4 -17 21 -29 23
-40 7 -8 -10 -9 -10 -5 2 8 28 -11 48 -43 46 -16 -1 -30 1 -30 6 0 4 5 8 11 8
8 0 8 5 -1 15 -7 8 -16 12 -22 9 -5 -3 -16 0 -25 8 -14 11 -16 11 -8 -1 6 -10
4 -12 -4 -6 -7 4 -23 -3 -38 -16 -22 -20 -25 -21 -20 -6 4 10 7 21 7 23 0 3 4
3 9 0 4 -3 16 3 25 13 13 14 14 21 5 27 -8 4 -10 3 -5 -4 4 -7 2 -12 -5 -12
-7 0 -21 -7 -31 -17 -11 -10 -18 -12 -19 -5 -3 27 -4 31 -13 39 -5 5 -6 2 -1
-6 5 -9 4 -12 -2 -8 -16 10 -56 90 -41 82 7 -4 2 3 -12 15 -17 15 -33 20 -53
17 -32 -4 -164 28 -184 45 -23 19 -14 35 28 46 42 11 60 -1 43 -30 -4 -7 -4
-10 1 -6 4 4 14 3 21 -3 17 -14 29 11 21 44 -12 53 -46 175 -60 212 -14 38
-16 40 -58 40 -24 0 -54 7 -67 15 -25 16 -30 50 -8 50 8 0 17 9 21 19 8 25 28
21 54 -9 l20 -25 -5 65 c-3 36 -12 69 -19 75 -8 5 -21 26 -29 45 l-16 35 4
-44 c3 -25 1 -39 -3 -32 -7 11 -9 11 -13 0 -3 -8 -8 19 -12 60 -4 48 -13 83
-26 101 -27 39 -25 56 9 68 27 10 29 15 33 69 3 40 0 61 -9 69 -7 6 -13 18
-13 26 0 8 -9 23 -20 33 -18 16 -21 30 -19 89 2 84 15 175 31 213 6 16 13 36
15 47 2 10 10 33 18 50 23 51 48 110 50 121 2 6 19 39 39 73 20 35 36 67 36
70 0 23 163 233 191 246 11 5 19 13 19 17 0 13 180 189 247 242 33 26 67 47
75 47 7 0 23 7 35 15 12 8 28 12 36 9 10 -3 14 0 14 11 -3 24 31 45 42 26 7
-11 10 -9 15 7 8 23 89 67 106 57 5 -3 10 -2 10 3 0 4 15 16 34 25 26 12 36
13 40 4 3 -9 5 -8 5 1 1 15 100 64 114 55 5 -3 12 -1 16 5 4 6 42 18 86 27 44
8 96 22 115 30 116 46 306 58 483 30 235 -38 361 -75 587 -174 105 -46 105
-45 0 26 -97 65 -263 145 -287 137 -13 -4 -14 -3 -5 4 9 6 -3 14 -44 25 -31 9
-61 14 -65 11 -4 -2 -20 -2 -34 2 -21 5 -24 9 -13 16 8 6 -1 7 -27 3 -29 -4
-36 -3 -25 5 11 8 3 9 -30 5 -30 -3 -37 -2 -20 3 20 6 7 11 -60 20 -107 15
-349 14 -460 -3z m124 -5 c-5 -5 -36 -12 -69 -14 l-60 -5 65 13 c36 8 67 14
70 15 2 0 0 -3 -6 -9z m229 3 c-13 -2 -35 -2 -50 0 -16 2 -5 4 22 4 28 0 40
-2 28 -4z m115 -10 c-10 -2 -28 -2 -40 0 -13 2 -5 4 17 4 22 1 32 -1 23 -4z
m-1228 -376 c0 -2 -24 -23 -52 -47 l-53 -42 47 46 c42 41 58 53 58 43z m1745
-32 c13 0 19 -6 17 -18 -3 -16 9 -21 46 -20 6 1 12 -3 12 -8 0 -5 3 -8 8 -6 4
1 18 -8 31 -20 13 -12 30 -19 40 -16 12 4 12 2 -3 -9 -16 -13 -17 -16 -3 -30
10 -10 12 -19 6 -27 -5 -6 -6 -9 -2 -6 9 7 37 -35 29 -43 -11 -11 -36 -11 -30
0 4 7 2 8 -4 4 -7 -4 -12 -18 -12 -31 0 -19 5 -23 29 -21 20 1 27 -2 24 -11
-3 -7 -9 -10 -14 -7 -17 10 -49 13 -49 3 0 -5 -5 -9 -11 -9 -5 0 -7 6 -3 13 5
9 4 9 -6 0 -16 -15 -3 -36 19 -29 9 4 6 -2 -8 -14 -13 -11 -26 -18 -30 -15 -3
3 1 10 9 15 13 8 12 10 -2 10 -11 0 -16 6 -13 19 2 14 -1 18 -15 14 -10 -3
-31 3 -46 13 -26 17 -28 17 -15 1 8 -10 9 -17 3 -17 -13 0 -34 34 -27 44 3 3
2 3 -2 0 -12 -9 -10 -28 4 -42 7 -7 13 -19 13 -25 0 -7 -4 -6 -10 3 -5 8 -14
16 -20 16 -20 3 -21 4 -13 17 10 17 12 57 1 51 -4 -3 -8 2 -8 10 0 17 -15 21
-24 7 -4 -5 0 -11 6 -14 7 -3 3 -4 -9 -4 l-23 1 22 23 c16 17 18 23 7 23 -10
1 -8 5 6 17 15 12 16 14 3 10 -9 -3 -22 0 -28 8 -14 17 -23 88 -10 80 5 -3 10
-1 10 6 0 7 3 10 6 7 3 -4 1 -17 -6 -30 -11 -22 -11 -22 5 -3 18 22 56 29 67
11 5 -7 8 -7 8 3 0 8 8 20 18 28 16 13 15 13 -4 4 -16 -8 -23 -5 -33 11 -10
16 -10 19 1 12 7 -5 22 -9 33 -9z m-40 -17 c4 -3 2 -9 -3 -12 -5 -3 -15 1 -21
8 -10 11 -9 14 3 12 9 -1 18 -5 21 -8z m342 -84 c-3 -3 -12 -4 -19 -1 -8 3 -5
6 6 6 11 1 17 -2 13 -5z m-443 -22 c3 -5 -1 -9 -9 -9 -8 0 -12 4 -9 9 3 4 7 8
9 8 2 0 6 -4 9 -8z m-59 -47 c6 0 17 4 25 9 10 7 10 3 -3 -11 -9 -11 -15 -22
-12 -25 3 -2 -1 -5 -9 -5 -8 0 -14 5 -13 11 1 6 -6 10 -15 8 -10 -2 -18 1 -18
6 0 15 13 22 24 14 6 -5 16 -8 21 -7z m643 -89 c17 -9 32 -21 32 -27 0 -6 -4
-7 -10 -4 -5 3 -10 0 -10 -7 0 -10 -10 -13 -31 -12 -36 3 -42 7 -44 36 -2 23
16 51 25 38 3 -4 20 -15 38 -24z m7 14 c3 -6 -1 -7 -9 -4 -18 7 -21 14 -7 14
6 0 13 -4 16 -10z m-380 -40 c-3 -5 -16 -7 -30 -5 -39 4 -39 11 0 12 19 1 33
-3 30 -7z m-105 -44 c0 -16 11 -29 35 -42 20 -10 38 -29 41 -41 4 -15 11 -20
22 -16 10 4 13 2 8 -5 -6 -11 5 -17 27 -13 4 0 7 -4 7 -10 0 -6 6 -9 14 -6 11
4 13 0 9 -16 -2 -12 -7 -32 -10 -44 -3 -15 -1 -23 7 -23 8 0 10 8 7 21 -4 14
-2 19 8 16 9 -4 11 1 8 16 -4 16 -2 18 5 8 8 -11 12 -10 21 5 17 30 13 7 -5
-28 -24 -46 -29 -88 -10 -88 8 0 18 -5 22 -12 4 -7 3 -8 -4 -4 -7 4 -12 2 -12
-3 0 -6 7 -11 16 -11 13 0 11 -5 -9 -24 -26 -24 -26 -24 -6 -45 11 -11 15 -21
10 -21 -6 0 -15 9 -21 20 -6 11 -17 20 -25 20 -8 0 -15 5 -15 11 0 5 -4 7 -10
4 -5 -3 -10 2 -10 12 0 21 -43 -27 -76 -88 -13 -24 -25 -35 -33 -30 -7 4 -11
12 -10 17 5 30 -2 34 -32 18 -19 -9 -27 -19 -21 -23 13 -8 35 -62 27 -69 -3
-3 -5 0 -5 7 0 7 -5 9 -11 6 -6 -4 -9 0 -7 11 2 11 -4 20 -16 22 -10 2 -16 0
-13 -5 3 -5 -5 -21 -19 -36 -13 -14 -24 -37 -24 -50 0 -12 -6 -29 -12 -36 -10
-11 -10 -13 0 -7 8 5 12 0 12 -16 0 -18 -2 -20 -10 -8 -8 13 -9 13 -14 0 -13
-43 -14 -44 -15 -23 -2 52 -111 -24 -111 -78 0 -25 -6 -33 -29 -42 -23 -8 -37
-27 -62 -81 -18 -39 -44 -98 -59 -131 -15 -33 -31 -70 -35 -83 -4 -13 -9 -21
-13 -18 -7 8 19 88 36 105 7 7 11 20 8 27 -3 8 0 14 6 14 6 0 9 3 6 6 -3 3 9
35 28 70 19 36 32 70 28 75 -3 5 0 9 7 9 8 0 8 4 -1 15 -15 19 -19 74 -5 72 8
-2 10 3 14 35 0 6 14 0 29 -15 l28 -27 22 25 c13 15 17 25 9 25 -8 0 -7 3 3 9
8 6 18 7 24 4 5 -3 6 -1 2 5 -4 6 -2 21 4 32 9 17 7 24 -12 41 l-23 20 26 -16
c25 -14 28 -14 50 6 13 11 18 17 10 13 -9 -4 -12 -3 -7 4 4 6 13 9 22 5 12 -4
14 0 10 22 -5 27 -5 27 15 9 17 -15 21 -16 19 -4 -4 29 0 38 33 59 17 11 28
21 23 21 -6 0 -2 6 7 13 10 7 22 38 28 75 6 34 15 62 19 62 5 0 7 9 5 20 -2
11 0 18 5 15 4 -3 7 -13 6 -22 -2 -9 0 -34 4 -55 4 -21 4 -38 0 -38 -4 0 -10
-9 -13 -21 -4 -14 -2 -19 7 -16 9 4 11 -3 8 -21 -5 -25 -2 -23 31 16 21 24 34
48 31 53 -3 5 0 9 7 9 7 0 10 3 6 6 -3 3 -1 18 4 32 8 21 7 23 -5 13 -12 -10
-13 -7 -6 23 6 29 4 38 -14 54 -11 10 -29 22 -39 25 -14 5 -15 10 -6 25 15 24
4 69 -19 77 -38 13 -53 32 -46 59 7 30 24 25 24 -8z m93 4 c-3 -12 -8 -19 -11
-16 -5 6 5 36 12 36 2 0 2 -9 -1 -20z m-35 -25 c-3 -3 -9 2 -12 12 -6 14 -5
15 5 6 7 -7 10 -15 7 -18z m82 14 c0 -4 -8 -9 -18 -11 -11 -3 -19 0 -19 8 0 7
9 12 19 11 10 -1 18 -4 18 -8z m86 -26 c-4 -4 -11 -1 -16 7 -16 25 -11 35 7
17 9 -9 13 -20 9 -24z m-133 -18 c-3 -9 -8 -14 -10 -11 -3 3 -2 9 2 15 9 16
15 13 8 -4z m41 -11 c5 -14 4 -15 -9 -4 -17 14 -19 20 -6 20 5 0 12 -7 15 -16z
m314 -73 c7 -1 26 -15 42 -32 19 -21 33 -29 42 -23 11 7 11 5 0 -9 -8 -9 -11
-21 -7 -27 3 -5 1 -10 -6 -10 -9 0 -9 -3 0 -14 9 -11 8 -15 -4 -20 -9 -3 -13
-11 -10 -17 4 -6 14 -8 22 -5 8 4 11 1 8 -5 -4 -6 -13 -8 -21 -5 -8 3 -14 2
-14 -3 0 -5 -8 -8 -17 -7 -12 0 -17 -5 -15 -16 1 -9 -1 -19 -6 -22 -5 -3 -8 6
-6 19 2 22 -1 24 -23 21 -19 -4 -23 -2 -19 11 4 11 2 14 -9 9 -10 -4 -15 1
-15 15 0 13 -4 18 -12 13 -10 -6 -10 -5 0 8 10 12 10 18 -2 27 -8 7 -12 19 -9
27 3 8 0 14 -6 14 -15 0 -14 -33 2 -50 10 -12 9 -12 -5 -1 -9 7 -22 10 -28 6
-14 -8 -1 77 13 86 5 4 23 3 39 -2 23 -6 29 -5 25 5 -4 9 0 13 11 11 9 -2 23
-4 30 -4z m222 -54 c0 -5 7 -6 16 -3 8 3 12 2 9 -4 -3 -6 -2 -10 4 -10 5 0 12
6 15 13 3 6 4 3 3 -8 -1 -11 3 -19 8 -18 6 1 11 -7 11 -17 0 -11 -2 -17 -5
-15 -2 3 -9 1 -15 -4 -16 -12 -57 -21 -50 -10 3 5 1 9 -5 9 -17 0 -42 55 -30
67 12 12 39 13 39 0z m-610 -11 c-7 -7 -14 -6 -21 1 -9 9 -7 12 9 10 14 -1 18
-5 12 -11z m219 -142 c-12 -13 -26 -21 -31 -18 -12 8 18 41 37 41 12 0 10 -6
-6 -23z m388 12 c-1 -6 4 -10 10 -9 7 2 15 -8 19 -22 3 -14 9 -23 13 -21 4 3
7 -4 7 -15 0 -10 -4 -19 -9 -19 -4 0 -6 -4 -3 -8 3 -5 -9 -21 -27 -38 -17 -16
-27 -22 -23 -14 4 8 -1 4 -12 -10 -20 -24 -20 -46 -1 -35 5 4 9 1 9 -5 0 -7 6
-8 19 0 16 8 19 7 17 -7 -3 -16 -46 -27 -46 -11 0 4 -5 8 -11 8 -5 0 -7 -4 -4
-10 4 -6 -11 -7 -42 -3 -58 7 -62 10 -39 26 16 12 14 13 -22 12 -27 -1 -43 3
-47 12 -2 8 -9 11 -15 8 -5 -3 -10 -1 -10 4 0 6 9 11 20 11 11 0 20 -4 20 -9
0 -5 16 -9 36 -9 22 0 41 -7 50 -18 12 -15 15 -16 11 -3 -4 11 0 16 11 15 10
0 18 3 19 8 1 5 6 12 12 16 8 4 4 13 -11 26 -22 19 -23 19 -8 -1 8 -11 10 -17
6 -13 -5 4 -16 2 -24 -5 -13 -10 -14 -9 -7 3 13 20 14 60 2 60 -5 0 -6 7 -3
16 4 10 -1 26 -11 37 -10 11 -13 17 -6 14 6 -4 15 -2 18 4 4 5 13 8 19 6 7 -3
18 -2 25 2 18 11 40 9 38 -3z m-147 -16 c0 -5 -5 -10 -11 -10 -5 0 -7 5 -4 10
3 6 8 10 11 10 2 0 4 -4 4 -10z m-327 -54 c8 5 8 3 0 -6 -18 -19 -40 -21 -53
-4 -10 10 -8 12 9 9 16 -3 21 2 22 18 2 22 2 22 6 -1 3 -13 9 -20 16 -16z
m-284 8 c-7 -9 -24 -20 -37 -25 -13 -5 -21 -13 -18 -18 4 -5 0 -8 -6 -7 -40 6
-53 46 -15 46 12 0 29 5 37 10 8 5 23 10 34 10 16 0 17 -2 5 -16z m-112 -16
c-3 -8 -6 -5 -6 6 -1 11 2 17 5 13 3 -3 4 -12 1 -19z m137 8 c-3 -8 -12 -17
-20 -20 -18 -7 -18 -1 2 18 19 20 25 20 18 2z m-414 -22 c0 -22 -16 -24 -34
-5 -16 18 -16 19 9 19 14 0 25 -6 25 -14z m-40 -50 c0 -20 -7 -17 -20 6 -9 16
-8 18 5 14 8 -4 15 -12 15 -20z m-31 -20 c-6 -8 -9 -20 -6 -29 9 -21 -9 -27
-24 -8 -10 12 -11 15 -1 9 9 -6 11 -1 8 20 -7 35 2 48 20 33 11 -9 11 -15 3
-25z m1076 26 c3 -6 -1 -7 -9 -4 -18 7 -21 14 -7 14 6 0 13 -4 16 -10z m-690
-9 c3 -5 1 -12 -5 -16 -5 -3 -10 1 -10 9 0 18 6 21 15 7z m735 5 c0 -2 -7 -7
-16 -10 -8 -3 -12 -2 -9 4 6 10 25 14 25 6z m-278 -58 c-14 -14 -44 -20 -36
-7 3 5 9 7 14 4 5 -3 11 -1 15 5 3 5 9 10 13 10 3 0 1 -5 -6 -12z m-55 -13 c0
-8 -4 -12 -9 -9 -5 3 -6 10 -3 15 9 13 12 11 12 -6z m-547 -25 c0 -5 -5 -10
-11 -10 -5 0 -7 5 -4 10 3 6 8 10 11 10 2 0 4 -4 4 -10z m1070 -4 c0 -3 -4 -8
-10 -11 -5 -3 -10 -1 -10 4 0 6 5 11 10 11 6 0 10 -2 10 -4z m-1362 -40 c-1
-14 -5 -23 -9 -20 -4 2 -6 12 -4 22 5 23 4 22 10 22 3 0 4 -11 3 -24z m-1761
-8 c-3 -8 -6 -5 -6 6 -1 11 2 17 5 13 3 -3 4 -12 1 -19z m2293 6 c0 -8 -19
-13 -24 -6 -3 5 1 9 9 9 8 0 15 -2 15 -3z m280 2 c0 -2 -8 -10 -17 -17 -16
-13 -17 -12 -4 4 13 16 21 21 21 13z m675 -8 c5 4 5 1 1 -6 -6 -10 -11 -10
-22 -1 -8 6 -14 14 -14 16 0 3 6 0 13 -6 8 -6 18 -7 22 -3z m-1245 -3 c0 -1
-10 -10 -22 -21 -14 -12 -18 -13 -10 -3 6 9 10 18 7 21 -3 2 2 5 10 5 8 0 15
-1 15 -2z m1194 -13 c2 -4 0 -14 -6 -22 -8 -12 -9 -12 -5 2 3 9 1 19 -6 22 -9
3 -9 5 0 5 6 1 14 -3 17 -7z m-994 -6 c0 -2 -7 -7 -16 -10 -8 -3 -12 -2 -9 4
6 10 25 14 25 6z m1047 -21 c0 -8 -4 -15 -9 -15 -10 0 -11 14 -1 23 9 10 10 9
10 -8z m-3270 -52 c-3 -10 -5 -4 -5 12 0 17 2 24 5 18 2 -7 2 -21 0 -30z
m3266 7 c-3 -12 -8 -19 -11 -16 -5 6 5 36 12 36 2 0 2 -9 -1 -20z m-763 -37
c0 -7 12 -32 27 -54 22 -34 24 -42 12 -50 -11 -7 -11 -9 4 -9 10 0 15 -4 12
-10 -4 -6 -13 -5 -25 2 -10 7 -16 17 -12 23 12 19 11 37 -3 31 -10 -3 -12 0
-8 11 5 12 1 14 -15 9 -18 -6 -21 -4 -15 10 4 11 3 15 -5 10 -6 -3 -13 -2 -17
3 -3 6 4 8 15 6 14 -3 20 0 17 8 -3 7 -9 11 -14 10 -5 -1 -10 5 -10 13 0 8 4
14 9 14 5 0 6 6 3 13 -4 6 1 3 9 -7 9 -11 16 -26 16 -33z m742 9 c1 -17 8 -34
16 -37 7 -3 12 -13 11 -22 -3 -37 1 -64 11 -58 5 3 7 11 5 18 -7 21 -13 109
-7 102 3 -3 8 -13 10 -23 6 -23 9 -122 3 -117 -2 3 -11 -1 -20 -7 -9 -7 -13
-8 -9 -4 4 5 -2 25 -14 44 -12 20 -17 33 -11 29 6 -4 13 2 16 12 3 11 -1 22
-7 24 -6 3 -13 22 -14 43 -2 21 -1 36 2 33 3 -3 6 -19 8 -37z m-581 -19 c13
-16 12 -17 -3 -4 -17 13 -22 21 -14 21 2 0 10 -8 17 -17z m-1067 -33 c6 -27
40 -38 52 -18 5 7 1 9 -9 5 -9 -3 -20 -1 -24 6 -11 19 -11 48 1 44 6 -3 10
-10 9 -16 -2 -6 2 -11 7 -11 6 0 10 6 10 13 1 17 24 -24 25 -45 1 -10 -4 -14
-13 -10 -11 4 -13 1 -7 -8 5 -7 4 -11 -1 -8 -5 3 -16 -1 -24 -10 -13 -14 -12
-15 2 -9 10 3 22 -1 30 -11 9 -11 10 -14 1 -8 -7 4 -13 2 -13 -3 0 -6 9 -11
20 -11 14 0 18 5 14 18 -5 14 -4 14 6 -2 9 -13 9 -20 2 -25 -7 -4 -4 -11 8
-19 12 -7 21 -8 25 -2 3 6 1 10 -6 10 -7 0 -9 3 -6 6 4 4 13 2 20 -4 8 -7 18
-8 23 -4 4 4 2 -1 -5 -10 -7 -10 -17 -16 -21 -13 -5 3 -11 1 -15 -5 -3 -5 -16
-10 -28 -10 -18 0 -19 -2 -7 -10 10 -6 11 -10 3 -10 -7 0 -13 -5 -13 -11 0 -5
5 -7 12 -3 7 4 2 -6 -10 -23 -12 -17 -18 -34 -14 -38 4 -4 -3 -2 -15 4 -13 6
-23 10 -23 9 0 -2 -4 -17 -9 -35 -7 -24 -6 -33 5 -37 10 -4 12 3 9 27 l-5 32
11 -35 c6 -19 15 -38 20 -41 5 -3 -6 -10 -25 -16 l-35 -11 5 55 c4 38 2 53 -5
48 -6 -3 -9 -11 -6 -16 3 -5 -2 -6 -11 -2 -11 4 -15 3 -10 -5 3 -6 2 -14 -4
-17 -6 -4 -9 -2 -8 2 2 5 -12 24 -30 42 -17 18 -30 37 -27 42 4 5 -1 6 -10 2
-12 -4 -13 -8 -5 -13 8 -5 9 -10 2 -14 -18 -11 -25 15 -8 33 17 19 22 36 7 27
-5 -3 -15 2 -22 11 -10 12 -10 14 -1 9 7 -4 12 -2 12 4 0 6 6 8 13 4 6 -4 9
-4 5 1 -4 4 -3 17 3 28 8 14 8 18 0 13 -6 -4 -11 -2 -11 3 0 6 -7 11 -15 11
-8 0 -15 5 -15 10 0 6 5 10 12 10 6 0 8 3 5 6 -4 4 -13 1 -22 -6 -13 -11 -14
-10 -9 4 4 10 15 16 27 14 15 -2 21 3 22 22 2 14 -3 31 -9 39 -8 11 -8 13 3
10 8 -3 18 -15 22 -28 5 -13 5 -20 -1 -16 -5 3 -8 -4 -7 -15 1 -11 7 -20 15
-20 7 0 10 5 6 13 -3 6 6 -1 20 -18 22 -24 25 -26 16 -7 -11 23 -11 23 14 7
14 -9 31 -15 38 -12 8 3 6 6 -5 6 -10 1 -15 6 -12 11 4 6 10 8 14 6 4 -3 13 0
21 6 12 8 12 9 -2 4 -13 -4 -18 0 -18 14 0 12 -12 26 -31 35 -36 19 -48 13
-28 -12 12 -16 12 -17 -2 -6 -9 7 -20 9 -24 5 -5 -4 -5 -1 0 7 4 7 3 16 -4 20
-7 4 7 8 30 9 23 1 45 5 48 8 3 3 6 2 7 -3 1 -4 5 -19 8 -33z m102 4 c1 -9 0
-13 -4 -10 -3 4 -7 14 -8 22 -1 9 0 13 4 10 3 -4 7 -14 8 -22z m757 -7 c7 3 8
2 4 -2 -14 -16 -36 -14 -29 3 4 10 7 12 10 4 2 -7 9 -9 15 -5z m-873 -13 c0
-2 -7 -4 -15 -4 -8 0 -15 4 -15 10 0 5 7 7 15 4 8 -4 15 -8 15 -10z m517 -6
c-3 -8 -6 -5 -6 6 -1 11 2 17 5 13 3 -3 4 -12 1 -19z m633 7 c0 -2 -10 -9 -22
-15 -22 -11 -22 -10 -4 4 21 17 26 19 26 11z m-1150 -24 c0 -18 -18 -21 -30
-6 -10 13 -9 15 9 15 11 0 21 -4 21 -9z m841 -7 c9 -8 15 -23 12 -34 -4 -16
-7 -17 -19 -6 -7 8 -19 16 -26 18 -12 4 -5 38 8 38 4 0 15 -7 25 -16z m89 1
c0 -12 -19 -12 -23 0 -4 9 -1 12 9 8 7 -3 14 -7 14 -8z m-750 -45 c8 -15 8
-18 -3 -14 -8 3 -14 11 -14 19 0 20 4 19 17 -5z m1357 -32 c-3 -7 -5 -2 -5 12
0 14 2 19 5 13 2 -7 2 -19 0 -25z m-1652 4 c0 -18 -20 -15 -23 4 -3 10 1 15
10 12 7 -3 13 -10 13 -16z m-40 -29 c-2 -10 -4 -25 -5 -33 -1 -10 -4 -9 -10 5
-7 17 -9 17 -9 3 -1 -10 -5 -18 -11 -18 -14 0 -13 7 6 35 19 29 34 33 29 8z
m1708 -48 c4 -34 3 -42 -3 -25 -8 25 -13 87 -6 79 2 -2 6 -26 9 -54z m-794 41
c-29 -27 -119 -89 -119 -82 0 6 110 86 118 86 3 0 3 -2 1 -4z m-879 -31 c0
-12 -19 -12 -23 0 -4 9 -1 12 9 8 7 -3 14 -7 14 -8z m-1466 -435 c8 -58 20
-121 26 -140 5 -19 10 -42 9 -50 -2 -27 -38 123 -49 200 -20 152 -31 317 -23
375 6 51 9 35 14 -110 4 -93 14 -217 23 -275z m1529 341 c-2 -3 -9 1 -15 7 -9
9 -15 9 -27 -1 -12 -10 -13 -9 -6 2 5 9 4 12 -3 7 -6 -4 -9 -13 -6 -21 4 -8
11 -12 16 -9 6 4 5 -3 -1 -15 -14 -25 -23 -28 -14 -4 5 12 3 14 -7 8 -8 -5
-11 -4 -7 2 4 6 0 16 -8 23 -14 12 -19 7 -16 -13 1 -5 -3 -6 -9 -2 -8 5 -8 11
-1 19 6 7 7 17 3 22 -4 4 0 3 10 -4 12 -10 18 -10 24 -1 4 8 3 9 -4 5 -7 -4
-12 -2 -12 4 0 7 8 9 20 5 11 -4 20 -2 20 4 0 6 10 0 23 -12 13 -12 22 -24 20
-26z m652 -1 c-24 -25 -27 -33 -15 -40 8 -5 18 -6 22 -4 9 6 12 -9 8 -40 -1
-10 3 -22 9 -26 19 -11 -33 -59 -60 -55 -50 6 -60 16 -54 47 10 44 32 82 38
66 4 -8 6 -7 6 5 1 9 16 31 34 47 42 38 49 38 12 0z m-511 -6 c3 -8 2 -12 -4
-9 -6 3 -10 10 -10 16 0 14 7 11 14 -7z m-148 -28 c1 -7 -4 -13 -12 -13 -9 0
-11 4 -4 12 5 7 8 15 5 18 -3 4 -2 5 2 2 4 -3 8 -11 9 -19z m194 9 c-6 -8 -8
-20 -4 -27 5 -10 4 -10 -6 -1 -11 10 -11 15 0 28 7 8 15 15 17 15 3 0 0 -7 -7
-15z m-289 -10 c3 2 5 -5 5 -16 0 -18 -2 -18 -12 -5 -6 9 -13 14 -16 11 -2 -3
-5 2 -5 10 0 10 4 12 12 5 7 -5 14 -8 16 -5z m149 5 c0 -5 -5 -10 -11 -10 -5
0 -7 5 -4 10 3 6 8 10 11 10 2 0 4 -4 4 -10z m286 -2 c4 -7 3 -10 -1 -5 -5 4
-18 -1 -29 -10 -21 -18 -21 -18 -2 5 22 26 23 26 32 10z m-483 -15 c-3 -7 -6
-13 -8 -13 -2 0 -5 6 -8 13 -3 8 1 14 8 14 7 0 11 -6 8 -14z m517 -46 c-11
-29 -20 -53 -20 -53 0 -1 7 -5 16 -8 10 -4 13 -2 8 6 -4 7 -3 8 5 4 21 -14 7
-50 -32 -81 -31 -24 -38 -35 -34 -57 2 -15 0 -25 -5 -22 -4 3 -8 -3 -8 -12 0
-13 -3 -15 -10 -8 -7 7 -8 25 -2 52 9 39 9 41 -10 31 -28 -15 -32 -6 -17 35
15 42 8 54 -44 73 -32 12 -31 12 18 10 35 -1 49 2 48 11 -4 17 14 15 21 -3 4
-13 10 -14 26 -5 11 6 18 15 15 21 -4 5 1 16 9 25 9 8 16 22 16 30 0 8 4 12
10 9 6 -4 2 -26 -10 -58z m500 28 c-7 -8 -16 -15 -21 -15 -5 0 -1 8 9 18 20
22 31 19 12 -3z m-897 -15 c10 -12 9 -12 -4 -2 -9 6 -18 9 -21 6 -3 -3 -9 -1
-12 4 -9 15 22 8 37 -8z m281 -16 c3 -8 2 -12 -4 -9 -6 3 -10 10 -10 16 0 14
7 11 14 -7z m-257 -20 c-3 -3 -12 -4 -19 -1 -8 3 -5 6 6 6 11 1 17 -2 13 -5z
m590 -186 c-3 -8 -6 -5 -6 6 -1 11 2 17 5 13 3 -3 4 -12 1 -19z m-10 -40 c-3
-8 -6 -5 -6 6 -1 11 2 17 5 13 3 -3 4 -12 1 -19z m317 -16 c3 -5 -1 -9 -9 -9
-8 0 -12 4 -9 9 3 4 7 8 9 8 2 0 6 -4 9 -8z m-327 -34 c-3 -7 -5 -2 -5 12 0
14 2 19 5 13 2 -7 2 -19 0 -25z m360 10 c-3 -8 -6 -5 -6 6 -1 11 2 17 5 13 3
-3 4 -12 1 -19z m-370 -50 c-3 -11 3 -39 13 -60 18 -39 18 -40 -1 -59 -22 -22
-29 -23 -64 -7 -15 7 -24 17 -21 25 3 8 1 11 -4 8 -15 -10 -12 6 6 26 12 13
13 22 5 38 -16 30 -13 39 5 13 14 -21 62 -33 49 -12 -7 11 3 50 12 50 3 0 3
-10 0 -22z m373 7 c0 -2 -6 -8 -13 -14 -10 -8 -14 -7 -14 2 0 8 6 14 14 14 7
0 13 -1 13 -2z m21 -42 c10 -11 10 -14 2 -9 -8 4 -13 1 -13 -8 0 -9 -5 -16
-10 -16 -7 0 -7 6 0 19 7 14 6 21 -3 24 -7 4 -8 6 -1 6 6 1 18 -7 25 -16z
m-1592 -57 c-9 -8 -10 -7 -5 7 3 10 7 24 7 30 1 7 3 4 6 -7 3 -10 -1 -23 -8
-30z m-69 14 c-5 -10 -7 -20 -5 -24 3 -3 2 -4 -2 -1 -12 10 -10 42 3 42 9 0
10 -5 4 -17z m1677 -22 c-3 -7 -5 -2 -5 12 0 14 2 19 5 13 2 -7 2 -19 0 -25z
m-1634 -43 c-9 -19 -18 -33 -21 -31 -4 5 26 66 33 66 3 0 -3 -16 -12 -35z
m-816 3 c-3 -8 -6 -5 -6 6 -1 11 2 17 5 13 3 -3 4 -12 1 -19z m950 0 c-3 -8
-6 -5 -6 6 -1 11 2 17 5 13 3 -3 4 -12 1 -19z m1016 -13 c-3 -9 -8 -14 -10
-11 -3 3 -2 9 2 15 9 16 15 13 8 -4z m-1242 -10 c1 -16 -17 -17 -30 -2 -9 12
-7 14 9 13 11 0 21 -5 21 -11z m1676 -5 c1 -11 -2 -20 -7 -20 -6 0 -7 17 -1
38 3 8 7 -1 8 -18z m-2390 -12 c-3 -8 -6 -5 -6 6 -1 11 2 17 5 13 3 -3 4 -12
1 -19z m2320 -2 c-3 -8 -1 -17 6 -20 9 -3 9 -5 0 -5 -15 -1 -26 16 -18 29 9
15 18 12 12 -4z m-1627 -11 c7 -8 9 -15 4 -15 -4 0 1 -7 12 -16 18 -14 18 -15
-4 -4 -12 6 -20 15 -17 21 4 5 -4 13 -17 18 -15 7 -17 10 -7 10 9 1 22 -6 29
-14z m1809 -24 c-6 -2 -18 4 -27 13 -15 15 -15 15 10 4 15 -7 23 -15 17 -17z
m-1879 -1 c10 0 22 -5 25 -10 4 -6 11 -8 16 -5 5 4 9 1 9 -5 0 -8 -7 -9 -17
-5 -10 4 -30 12 -45 17 -17 6 -25 15 -21 21 5 8 8 8 11 -1 2 -7 12 -12 22 -12z
m1841 -4 c14 8 11 -2 -4 -14 -10 -8 -13 -6 -14 11 0 12 1 16 4 9 3 -6 9 -10
14 -6z m-1371 -6 c0 -5 -7 -10 -16 -10 -8 0 -12 5 -9 10 3 6 10 10 16 10 5 0
9 -4 9 -10z m-466 -19 c21 -14 35 -17 52 -11 27 11 43 -5 25 -23 -9 -9 -11 -8
-5 6 5 15 3 16 -18 8 -19 -7 -33 -5 -56 9 -16 10 -33 16 -36 13 -3 -4 -6 -1
-6 5 0 17 10 15 44 -7z m153 -13 c-3 -7 -5 -2 -5 12 0 14 2 19 5 13 2 -7 2
-19 0 -25z m1330 -48 c3 0 3 6 0 13 -3 8 1 14 9 14 16 0 27 -24 14 -32 -5 -3
-7 -12 -4 -20 8 -20 -32 -56 -53 -48 -25 9 -59 33 -47 33 5 0 18 15 28 34 16
30 20 33 33 20 8 -8 17 -14 20 -14z m-1310 -47 c-3 -10 -5 -2 -5 17 0 19 2 27
5 18 2 -10 2 -26 0 -35z m166 -16 c24 -9 21 -28 -4 -34 -21 -6 -21 -7 -3 -21
18 -13 17 -14 -6 -7 -14 4 -26 12 -28 16 -2 5 -13 10 -25 10 -15 1 -17 3 -6 6
9 2 22 15 29 29 8 13 16 21 19 16 3 -5 14 -11 24 -15z m45 -29 c-2 -6 -10 -14
-16 -16 -7 -2 -10 2 -6 12 7 18 28 22 22 4z m1627 -8 c-3 -5 -12 -10 -18 -10
-7 0 -6 4 3 10 19 12 23 12 15 0z m-2505 -85 c0 -5 -5 -3 -10 5 -5 8 -10 20
-10 25 0 6 5 3 10 -5 5 -8 10 -19 10 -25z m400 5 c-6 -11 -13 -20 -16 -20 -2
0 0 9 6 20 6 11 13 20 16 20 2 0 0 -9 -6 -20z m1760 6 c-7 -7 -14 -6 -21 1 -9
9 -7 12 9 10 14 -1 18 -5 12 -11z m-1884 -93 c-3 -4 -13 10 -21 30 -21 51 -18
59 6 14 11 -22 18 -41 15 -44z m194 47 c0 -5 -4 -12 -10 -15 -5 -3 -10 1 -10
10 0 10 -5 13 -12 9 -7 -4 -8 -3 -4 4 7 12 36 5 36 -8z m1579 3 c-1 -5 -1 -15
0 -23 1 -13 3 -13 10 0 6 8 8 17 6 20 -2 3 5 6 15 7 11 1 22 -2 25 -8 4 -5 -2
-6 -11 -2 -12 4 -15 3 -10 -5 4 -7 2 -12 -6 -12 -9 -1 -7 -5 4 -14 10 -7 14
-16 10 -20 -4 -4 0 -6 8 -4 8 2 18 7 21 11 3 5 9 1 12 -8 4 -9 3 -13 -3 -10
-6 3 -10 2 -10 -4 0 -6 -7 -8 -15 -5 -11 4 -15 -1 -15 -17 -1 -21 -2 -22 -13
-8 -11 14 -14 14 -31 -3 -25 -23 -35 -23 -33 1 0 11 5 17 9 15 4 -3 8 0 8 5 0
6 -8 11 -17 11 -14 0 -15 2 -4 9 8 5 9 11 3 15 -6 4 -15 -2 -21 -11 -9 -16
-10 -16 -8 4 1 15 7 20 20 17 11 -2 17 2 14 9 -2 7 3 17 12 24 19 15 21 15 20
6z m-1755 -130 c18 -51 63 -111 131 -178 28 -27 66 -69 84 -93 18 -23 36 -40
39 -38 4 2 32 -19 62 -46 30 -28 49 -47 43 -43 -7 3 -13 1 -13 -4 0 -6 -4 -11
-10 -11 -5 0 -10 6 -10 14 0 8 -20 29 -45 47 -25 18 -73 64 -107 103 -34 39
-65 70 -70 69 -4 -2 -7 1 -5 5 1 5 -24 38 -57 74 -39 44 -64 65 -75 61 -14 -4
-14 -3 -1 6 13 9 11 16 -8 56 -12 25 -22 60 -22 78 1 30 2 29 29 -25 16 -32
31 -65 35 -75z m1856 104 c0 -7 -4 -6 -10 3 -8 12 -10 12 -10 1 0 -8 -3 -12
-6 -8 -9 9 6 28 17 22 5 -4 9 -12 9 -18z m-240 -7 c8 -5 11 -12 7 -16 -4 -4
-1 -14 5 -22 18 -21 18 -40 1 -46 -9 -4 -12 -1 -7 7 5 9 4 9 -7 0 -7 -7 -22
-13 -32 -13 -15 0 -18 5 -15 25 3 14 1 28 -3 31 -19 11 -8 24 17 20 21 -4 24
-3 14 10 -14 16 -3 19 20 4z m-1714 -33 c3 -12 18 -35 33 -52 l26 -30 -30 25
c-40 33 -65 62 -65 77 0 20 29 3 36 -20z m162 8 c-3 -3 -9 2 -12 12 -6 14 -5
15 5 6 7 -7 10 -15 7 -18z m120 0 c-3 -3 -9 2 -12 12 -6 14 -5 15 5 6 7 -7 10
-15 7 -18z m42 4 c0 -5 -4 -9 -8 -9 -5 0 -9 7 -9 15 0 8 4 12 9 9 4 -3 8 -9 8
-15z m1420 -5 c0 -8 -5 -12 -10 -9 -6 4 -8 11 -5 16 9 14 15 11 15 -7z m-1059
-45 c10 -25 18 -36 18 -24 1 18 2 18 17 3 9 -9 18 -28 19 -43 2 -14 8 -32 15
-40 9 -10 7 -15 -9 -20 -11 -3 -18 -12 -15 -19 3 -9 -6 -15 -25 -19 -38 -8
-58 -1 -96 35 -16 15 -40 28 -52 28 -13 0 -23 5 -23 10 0 6 15 10 34 10 33 0
34 1 40 52 12 89 47 101 77 27z m-496 13 c-3 -3 -11 0 -18 7 -9 10 -8 11 6 5
10 -3 15 -9 12 -12z m188 -41 c10 -12 9 -14 -5 -8 -13 4 -18 -1 -21 -21 -2
-15 -4 0 -5 33 -1 49 1 55 9 36 5 -14 15 -32 22 -40z m-123 25 c0 -3 -4 -8
-10 -11 -5 -3 -10 -1 -10 4 0 6 5 11 10 11 6 0 10 -2 10 -4z m-96 -14 c3 -5
-1 -9 -9 -9 -8 0 -12 4 -9 9 3 4 7 8 9 8 2 0 6 -4 9 -8z m1636 4 c0 -2 -8 -10
-17 -17 -16 -13 -17 -12 -4 4 13 16 21 21 21 13z m-1555 -44 c-10 -11 -35 -10
-42 0 -3 6 -1 8 5 4 6 -3 13 -2 17 4 4 6 11 8 16 4 6 -3 8 -9 4 -12z m235 -6
c0 -11 -19 -15 -25 -6 -3 5 1 10 9 10 9 0 16 -2 16 -4z m-199 -19 c-8 -10 -6
-19 9 -35 12 -12 16 -23 10 -27 -6 -3 -10 0 -10 7 0 9 -3 9 -10 -2 -10 -16
-10 -18 -15 30 -1 15 13 40 22 40 3 0 0 -6 -6 -13z m-55 -14 c-6 -15 10 -27
17 -13 3 6 4 5 3 -2 -4 -19 35 -57 53 -51 13 4 13 3 2 -5 -11 -8 -9 -14 8 -31
11 -11 21 -26 21 -32 0 -5 5 -7 12 -3 6 4 8 3 5 -3 -8 -13 29 -47 42 -38 6 3
9 0 5 -8 -6 -16 85 -80 106 -75 7 2 14 -4 15 -12 2 -8 7 -24 11 -35 6 -14 -4
-9 -36 17 -24 21 -63 47 -87 59 -24 11 -48 29 -53 39 -5 10 -33 34 -61 55 -41
29 -50 41 -47 59 5 24 -17 64 -28 53 -4 -3 -21 1 -38 10 l-31 17 25 6 c39 9
61 7 56 -7z m1436 -45 c-10 -10 -10 -8 -2 37 1 6 4 2 7 -9 3 -10 0 -23 -5 -28z
m-1420 -132 c16 -29 -71 47 -109 96 -18 22 -33 43 -33 47 0 9 130 -122 142
-143z m105 112 c-3 -8 -6 -5 -6 6 -1 11 2 17 5 13 3 -3 4 -12 1 -19z m1476 5
c-23 -2 -64 -2 -90 0 -26 2 -7 3 42 3 50 0 71 -1 48 -3z m-1434 -98 c0 -5 -8
6 -19 25 -11 19 -19 40 -19 45 0 6 8 -6 19 -25 11 -19 19 -39 19 -45z m381 29
c0 -8 3 -14 8 -14 8 0 42 -56 42 -70 0 -16 -33 -20 -67 -9 -43 14 -46 43 -3
37 32 -5 38 3 16 21 -19 16 -27 61 -9 54 7 -3 13 -11 13 -19z m63 -13 c3 -14
1 -18 -9 -14 -8 3 -14 11 -14 19 0 21 17 17 23 -5z m65 -9 c3 -16 -1 -20 -12
-16 -19 7 -22 48 -3 42 6 -3 13 -14 15 -26z m772 -152 c4 -6 26 -14 51 -19 44
-9 43 -9 -23 -10 -80 -1 -98 5 -98 31 0 18 4 20 32 14 18 -3 35 -11 38 -16z
m-100 -177 c-8 -3 -24 -10 -35 -16 -18 -9 -19 -9 -6 6 7 10 23 17 35 16 14 0
16 -2 6 -6z m145 -11 c-6 -5 -23 -14 -38 -20 -26 -11 -27 -11 -17 8 7 12 21
20 37 20 15 0 23 -4 18 -8z m-205 -15 c0 -2 -17 -19 -37 -38 l-38 -34 34 38
c33 34 41 42 41 34z m126 -42 c-11 -8 -25 -15 -32 -15 -6 0 -25 -7 -40 -15
-33 -17 -22 -20 22 -6 50 16 99 22 89 12 -6 -6 -50 -17 -98 -25 -48 -9 -96
-20 -107 -26 -27 -14 -77 -12 -83 4 -3 8 5 18 19 25 14 6 24 7 24 1 0 -5 13
-8 29 -7 16 1 27 5 25 9 -2 3 19 15 48 26 29 11 60 22 68 25 8 3 24 6 35 6 20
0 20 0 1 -14z m149 -35 c-27 -12 -43 -12 -25 0 8 5 22 9 30 9 10 0 8 -3 -5 -9z
m-168 -26 c-3 -3 -12 -4 -19 -1 -8 3 -5 6 6 6 11 1 17 -2 13 -5z m-344 -61
c-7 -2 -19 -2 -25 0 -7 3 -2 5 12 5 14 0 19 -2 13 -5z"/>
<path d="M3035 3850 c-3 -5 -2 -10 4 -10 5 0 13 5 16 10 3 6 2 10 -4 10 -5 0
-13 -4 -16 -10z"/>
<path d="M3021 3816 c-7 -8 -8 -17 -3 -20 6 -3 15 1 21 8 7 8 8 17 3 20 -6 3
-15 -1 -21 -8z"/>
<path d="M3705 3390 c-3 -5 -1 -10 4 -10 6 0 11 5 11 10 0 6 -2 10 -4 10 -3 0
-8 -4 -11 -10z"/>
<path d="M3329 3243 c-13 -16 -12 -17 4 -4 9 7 17 15 17 17 0 8 -8 3 -21 -13z"/>
<path d="M2892 3171 c2 -7 7 -12 11 -12 12 1 9 15 -3 20 -7 2 -11 -2 -8 -8z"/>
<path d="M2287 2469 c7 -7 15 -10 18 -7 3 3 -2 9 -12 12 -14 6 -15 5 -6 -5z"/>
<path d="M3831 4336 c10 -11 110 -35 104 -26 -3 5 -20 11 -38 15 -17 4 -41 9
-52 12 -11 3 -17 2 -14 -1z"/>
<path d="M3310 4275 c-19 -31 -20 -39 -9 -46 23 -14 28 -11 25 19 -2 15 1 33
7 40 5 7 7 15 5 18 -3 3 -16 -11 -28 -31z"/>
<path d="M3850 4301 c22 -13 120 -34 127 -28 5 6 -46 21 -107 31 -22 3 -29 2
-20 -3z"/>
<path d="M3897 4253 c18 -2 50 -2 70 0 21 2 7 4 -32 4 -38 0 -55 -2 -38 -4z"/>
<path d="M2210 4230 c22 -5 19 -8 -23 -18 -26 -7 -52 -10 -57 -7 -5 3 -20 0
-35 -7 -22 -10 -24 -13 -10 -21 9 -5 19 -6 22 -3 4 3 0 6 -8 6 -11 0 -11 2 1
10 21 13 33 12 24 -2 -5 -8 -2 -9 12 -4 10 4 50 16 87 26 38 10 70 20 72 22 2
2 -22 4 -53 4 -35 0 -47 -2 -32 -6z"/>
<path d="M3965 4235 c6 -2 28 -8 50 -14 36 -9 38 -9 21 4 -11 8 -34 15 -50 14
-17 0 -26 -2 -21 -4z"/>
<path d="M2215 4181 c-28 -14 -34 -20 -19 -20 11 -1 25 4 32 11 9 9 12 9 12
-2 1 -11 3 -11 11 3 10 17 30 24 28 10 -3 -20 3 -23 21 -13 59 31 -20 41 -85
11z"/>
<path d="M2363 4182 c-13 -2 -23 -8 -23 -13 0 -6 -5 -7 -10 -4 -6 4 -17 1 -26
-5 -12 -10 -12 -16 -2 -28 11 -13 10 -15 -4 -9 -11 4 -24 -5 -42 -28 -14 -18
-38 -40 -53 -47 -16 -8 -37 -19 -48 -25 -11 -5 -51 -21 -90 -33 -69 -23 -171
-91 -157 -105 4 -4 3 -5 -3 -4 -5 2 -20 -2 -33 -9 -27 -16 -42 -8 -42 21 0 44
52 100 148 163 58 38 67 56 23 48 -16 -4 -32 -1 -35 5 -5 7 5 11 26 12 24 1
27 3 10 6 -19 4 -21 7 -11 19 11 13 8 14 -17 8 -16 -4 -41 -13 -56 -20 -15 -8
-33 -14 -41 -14 -20 0 -90 -57 -76 -62 8 -3 9 -15 4 -36 -5 -24 -23 -44 -75
-83 -38 -28 -72 -59 -75 -69 -4 -12 -13 -16 -30 -12 -14 2 -25 8 -25 12 0 5
-3 15 -6 23 -4 11 9 24 40 42 25 15 46 33 46 41 0 18 -109 -31 -176 -79 -27
-19 -69 -41 -93 -48 -24 -7 -50 -23 -59 -36 -14 -22 -20 -79 -9 -90 10 -10 67
29 102 69 59 70 115 90 115 42 0 -20 4 -24 18 -20 14 5 17 -1 18 -27 1 -17 -2
-34 -6 -37 -4 -3 -19 -42 -34 -88 -22 -64 -25 -86 -16 -97 9 -11 8 -14 -7 -14
-10 1 -28 -2 -40 -6 -35 -11 -39 18 -8 60 30 39 27 43 -12 18 -14 -10 -39 -16
-54 -14 -37 3 -54 -6 -39 -24 8 -9 8 -15 0 -20 -5 -3 -10 -15 -10 -27 0 -15 5
-19 20 -15 38 10 31 -12 -12 -40 -30 -18 -57 -27 -88 -27 -39 -1 -47 -5 -65
-33 -11 -18 -25 -32 -31 -33 -24 -1 -46 -29 -50 -65 -5 -38 -34 -93 -44 -84
-14 12 -72 -49 -99 -103 -33 -65 -39 -113 -18 -132 7 -6 10 -10 8 -8 -3 1 -15
-8 -28 -20 l-23 -21 0 61 c0 51 -3 60 -15 55 -10 -3 -15 0 -13 8 2 8 -7 15
-19 17 -29 4 -80 -72 -87 -132 -8 -61 -14 -166 -10 -166 2 0 13 18 24 40 15
30 26 40 45 40 16 0 23 5 19 13 -3 8 11 20 36 31 22 9 45 27 52 39 11 20 13
18 23 -28 7 -29 8 -57 3 -67 -6 -13 -5 -18 7 -18 8 0 15 5 15 10 0 6 11 10 25
10 17 0 29 8 35 23 48 117 84 194 105 225 35 51 33 77 -7 93 l-33 13 30 4 c40
5 91 52 143 131 24 36 41 58 38 48 -3 -11 -9 -31 -13 -45 -3 -15 -14 -40 -23
-55 -23 -37 -15 -77 15 -77 18 0 28 12 48 58 33 73 41 83 105 121 28 18 52 37
52 43 0 6 7 8 15 4 18 -6 55 31 55 55 0 10 -6 19 -12 22 -9 3 0 18 24 43 62
66 178 208 178 221 0 6 -10 14 -22 16 -20 4 -19 4 5 6 15 0 39 8 52 17 48 32
47 7 -3 -53 -28 -34 -54 -74 -58 -89 -4 -15 -20 -47 -36 -70 -38 -57 -37 -74
6 -74 35 0 54 19 129 124 10 15 32 28 52 32 22 4 43 17 55 33 30 44 28 53 -15
67 l-40 12 37 1 c20 1 40 6 43 11 4 6 10 8 14 5 5 -2 28 12 52 33 l43 37 -22
-37 c-13 -21 -21 -42 -17 -48 10 -16 40 -12 59 9 9 10 45 26 79 36 59 16 115
58 118 89 1 6 3 20 4 31 1 11 15 55 29 98 31 88 31 103 -1 99z m-174 -205 c31
-13 31 -13 9 -24 -39 -19 -66 -21 -85 -7 -17 13 -17 15 1 29 24 18 35 19 75 2z
m-499 -162 c-7 -9 -27 -25 -44 -37 -23 -15 -21 -11 9 16 43 38 55 45 35 21z"/>
<path d="M2405 4158 c-3 -13 -12 -52 -20 -88 -15 -68 -20 -224 -5 -165 14 55
39 103 65 123 30 24 31 39 4 97 -26 55 -37 63 -44 33z"/>
<path d="M2464 4136 c4 -16 19 -45 33 -65 17 -25 24 -29 20 -15 -3 15 0 21 11
20 27 -2 24 22 -8 56 -18 18 -29 27 -25 21 3 -7 2 -13 -2 -13 -5 0 -15 6 -22
13 -11 10 -12 7 -7 -17z"/>
<path d="M2595 4134 c9 -9 23 -27 32 -40 15 -24 43 -33 43 -14 0 6 1 13 1 17
2 8 -70 52 -84 53 -5 0 -1 -7 8 -16z"/>
<path d="M2930 4100 c8 -5 20 -10 25 -10 6 0 3 5 -5 10 -8 5 -19 10 -25 10 -5
0 -3 -5 5 -10z"/>
<path d="M2920 4056 c0 -7 9 -21 19 -30 16 -14 23 -15 41 -6 21 11 21 12 3 24
-28 20 -63 26 -63 12z"/>
<path d="M1632 4030 c-18 -11 -32 -22 -32 -24 0 -7 35 5 54 20 31 22 13 25
-22 4z"/>
<path d="M2854 4021 c29 -30 46 -39 46 -23 -1 4 -18 18 -38 30 l-37 24 29 -31z"/>
<path d="M3299 4027 c16 -20 71 -61 71 -54 0 3 -19 20 -42 38 -24 19 -37 26
-29 16z"/>
<path d="M2794 3995 c-18 -19 37 -49 59 -32 12 8 14 16 7 27 -6 9 -10 11 -10
3 0 -12 -30 -7 -40 8 -3 4 -10 1 -16 -6z"/>
<path d="M2615 3969 c4 -5 -4 -19 -15 -31 -15 -16 -20 -31 -16 -50 6 -32 -2
-60 -15 -52 -5 3 -9 0 -9 -5 0 -6 -7 -11 -16 -11 -8 0 -13 -4 -10 -8 3 -5 -7
-20 -22 -33 -23 -20 -24 -24 -10 -27 25 -5 168 26 185 39 7 6 13 22 13 35 0
13 5 24 10 24 6 0 10 7 10 16 0 13 -3 14 -15 4 -12 -10 -20 -9 -40 4 -21 14
-25 23 -23 58 2 32 -1 41 -15 43 -9 2 -15 -1 -12 -6z"/>
<path d="M2846 3925 c-11 -8 -16 -15 -10 -15 5 0 18 7 28 15 11 8 16 15 10 15
-5 0 -18 -7 -28 -15z"/>
<path d="M2880 3920 c-9 -6 -10 -10 -3 -10 6 0 15 5 18 10 8 12 4 12 -15 0z"/>
<path d="M2910 3898 c0 -15 -3 -18 -12 -10 -10 8 -13 4 -13 -14 0 -13 6 -24
13 -24 7 0 10 5 7 10 -3 6 4 14 17 19 14 6 17 10 8 11 -10 1 -9 4 4 9 19 7 19
8 -2 13 -17 5 -22 2 -22 -14z"/>
<path d="M2760 3883 c0 -6 -8 -14 -17 -16 -10 -2 3 -4 30 -4 26 0 49 2 51 6 3
4 -8 6 -22 5 -15 0 -30 4 -34 10 -6 8 -8 8 -8 -1z"/>
<path d="M2845 3836 c0 -19 2 -34 5 -34 21 1 30 -4 24 -14 -5 -7 -3 -8 6 -3
10 6 10 11 -3 20 -18 13 -24 30 -7 20 6 -3 10 -1 10 4 0 6 -4 11 -10 11 -5 0
-10 7 -10 15 0 8 -3 15 -7 15 -5 0 -8 -15 -8 -34z"/>
<path d="M2438 3840 c-18 -11 -17 -43 4 -68 11 -13 14 -11 18 19 4 28 9 34 27
32 16 -2 21 2 17 12 -7 17 -41 19 -66 5z"/>
<path d="M4340 3831 c0 -5 7 -12 16 -15 22 -9 24 -8 18 9 -7 16 -34 21 -34 6z"/>
<path d="M2045 3790 c-8 -9 -15 -22 -15 -28 0 -6 -18 -48 -40 -93 -41 -85 -45
-129 -11 -129 17 0 51 57 51 86 0 45 74 119 134 135 29 8 28 8 -7 4 -30 -3
-36 -1 -28 9 8 9 1 15 -29 23 -33 8 -42 7 -55 -7z"/>
<path d="M2352 3760 c0 -14 2 -19 5 -12 2 6 2 18 0 25 -3 6 -5 1 -5 -13z"/>
<path d="M4207 3759 c4 -12 11 -18 20 -15 12 5 155 -30 211 -51 8 -4 10 0 6
11 -4 10 -13 15 -20 12 -7 -3 -16 -1 -20 5 -3 5 -14 7 -25 4 -10 -4 -19 -2
-19 3 0 9 -87 36 -117 37 -6 0 -15 4 -19 8 -14 14 -22 7 -17 -14z"/>
<path d="M2204 3711 c-41 -39 -41 -39 -19 -49 18 -8 26 -7 38 6 13 15 34 82
25 82 -2 0 -21 -18 -44 -39z"/>
<path d="M2695 3723 c2 -10 4 -20 4 -22 1 -2 8 3 18 10 15 13 15 12 4 -8 -7
-15 -17 -20 -28 -16 -12 5 -14 3 -8 -7 6 -10 4 -12 -9 -7 -9 4 -14 3 -11 -2 3
-5 -3 -12 -12 -14 -10 -2 -4 -4 14 -3 17 0 29 5 26 9 -3 5 2 7 10 5 9 -2 17 2
18 7 1 6 8 15 16 21 13 9 13 12 -1 23 -9 8 -16 10 -16 6 0 -4 -6 -2 -14 4 -12
10 -14 9 -11 -6z"/>
<path d="M830 3690 c12 -16 24 -30 26 -30 3 0 -4 14 -16 30 -12 17 -24 30 -26
30 -3 0 4 -13 16 -30z"/>
<path d="M2760 3708 c0 -4 11 -7 25 -6 28 3 24 11 -5 13 -11 1 -20 -2 -20 -7z"/>
<path d="M4242 3698 c3 -7 43 -21 89 -30 46 -10 97 -20 113 -24 21 -5 27 -4
22 5 -4 6 -14 11 -21 11 -8 0 -49 11 -91 25 -85 28 -118 31 -112 13z"/>
<path d="M2300 3670 c-30 -16 -61 -29 -67 -30 -7 0 -13 -5 -13 -11 0 -20 96
18 124 50 23 26 24 26 -44 -9z"/>
<path d="M2720 3650 c-11 -7 -11 -10 -2 -10 7 0 11 -4 8 -9 -3 -5 -16 -7 -29
-5 -20 4 -20 4 -2 -5 11 -4 25 -6 30 -3 6 3 4 -2 -4 -11 -10 -13 -17 -15 -27
-6 -11 9 -14 8 -14 -1 0 -6 9 -14 19 -17 11 -3 17 -11 15 -17 -3 -7 1 -13 8
-13 7 0 19 -2 27 -4 7 -2 16 2 19 10 3 9 0 11 -9 6 -8 -5 -11 -4 -6 0 4 5 17
10 29 12 17 3 19 1 8 -12 -9 -10 -9 -15 -1 -15 6 0 11 5 11 10 0 6 0 13 0 18
0 10 -43 11 -56 1 -7 -6 -10 6 -9 36 1 25 1 45 1 45 -1 0 -8 -5 -16 -10z"/>
<path d="M4270 3648 c8 -9 53 -25 100 -37 47 -11 96 -24 109 -27 15 -5 22 -3
18 3 -4 6 -24 13 -45 17 -22 3 -52 13 -68 21 -16 8 -42 15 -57 15 -16 0 -38 5
-50 11 -20 10 -20 10 -7 -3z"/>
<path d="M2594 3632 c4 -7 2 -12 -4 -12 -6 0 -8 -4 -5 -10 3 -5 14 -10 23 -9
11 0 12 2 4 6 -6 2 -10 9 -7 13 3 5 0 12 -6 16 -8 4 -9 3 -5 -4z"/>
<path d="M2525 3609 c-4 -6 -5 -12 -2 -15 2 -3 7 2 10 11 7 17 1 20 -8 4z"/>
<path d="M2555 3611 c-3 -5 -1 -12 5 -16 5 -3 10 1 10 9 0 18 -6 21 -15 7z"/>
<path d="M2749 3603 c-13 -16 -12 -17 4 -4 16 13 21 21 13 21 -2 0 -10 -8 -17
-17z"/>
<path d="M2636 3592 c-3 -5 1 -9 9 -9 8 0 12 4 9 9 -3 4 -7 8 -9 8 -2 0 -6 -4
-9 -8z"/>
<path d="M4303 3586 c2 -6 12 -10 21 -10 9 1 16 -2 16 -8 0 -5 4 -7 9 -4 4 3
47 -7 95 -23 48 -15 85 -23 83 -17 -3 10 -29 19 -155 54 -47 13 -72 16 -69 8z"/>
<path d="M2798 3541 c-9 -12 -19 -18 -22 -13 -3 6 -14 9 -24 7 -9 -2 -21 -4
-25 -4 -5 -1 -5 -7 0 -13 4 -7 9 -21 10 -32 2 -14 -1 -17 -14 -12 -17 6 -17 5
-1 -7 10 -8 15 -17 11 -20 -3 -4 -1 -7 5 -7 7 0 12 5 12 11 0 5 4 8 9 4 5 -3
22 7 36 21 15 15 20 24 11 21 -10 -4 -16 -1 -16 9 0 9 5 12 12 8 6 -4 8 -3 4
4 -3 5 -1 12 5 14 7 2 10 10 7 18 -3 10 -8 8 -20 -9z m-31 -17 c-3 -4 1 -13 9
-21 12 -12 12 -18 3 -30 -11 -12 -14 -12 -23 4 -14 24 -14 36 -1 45 12 9 21
10 12 2z"/>
<path d="M2757 3489 c7 -7 15 -10 18 -7 3 3 -2 9 -12 12 -14 6 -15 5 -6 -5z"/>
<path d="M2406 3531 c5 -19 3 -23 -9 -18 -11 4 -23 -4 -36 -21 -11 -15 -31
-34 -45 -42 -18 -9 -22 -16 -15 -21 16 -10 -8 -69 -27 -69 -8 0 -14 -3 -14 -8
0 -4 -16 -16 -35 -26 -36 -20 -42 -30 -25 -41 9 -5 175 31 188 41 2 1 7 24 12
51 l9 48 -3 -47 c-2 -27 0 -48 5 -48 5 0 30 15 57 34 30 22 62 36 86 38 22 2
41 8 43 14 2 6 -21 27 -51 47 -30 20 -57 46 -61 57 -4 13 -12 19 -21 16 -7 -3
-16 -1 -20 5 -4 7 -10 6 -19 -1 -10 -8 -15 -7 -19 2 -3 7 -3 2 0 -11z m39 -11
c-3 -5 -10 -10 -16 -10 -5 0 -9 5 -9 10 0 6 7 10 16 10 8 0 12 -4 9 -10z m17
-22 c-8 -8 -9 -4 -5 13 4 13 8 18 11 10 2 -7 -1 -18 -6 -23z"/>
<path d="M1684 3516 c-3 -9 -17 -16 -30 -16 -13 0 -24 -5 -24 -11 0 -5 5 -7
10 -4 17 11 11 -10 -25 -86 -41 -88 -66 -167 -55 -174 10 -6 50 45 78 100 11
23 40 59 64 81 35 33 54 42 96 48 36 5 55 12 62 26 8 16 5 20 -23 28 -17 6
-58 13 -90 17 -47 5 -58 4 -63 -9z"/>
<path d="M1925 3503 c-18 -16 -40 -59 -66 -131 -42 -117 -47 -149 -24 -159 19
-7 36 14 66 77 11 25 38 61 58 81 21 20 40 43 44 52 4 10 22 25 42 34 37 18
46 33 19 33 -8 0 -13 4 -10 8 2 4 -19 12 -49 18 -49 9 -55 8 -80 -13z"/>
<path d="M2676 3513 c-6 -14 -5 -15 5 -6 7 7 10 15 7 18 -3 3 -9 -2 -12 -12z"/>
<path d="M2700 3525 c0 -5 5 -17 10 -25 5 -8 10 -10 10 -5 0 6 -5 17 -10 25
-5 8 -10 11 -10 5z"/>
<path d="M4330 3520 c0 -5 14 -10 32 -10 36 0 35 4 -4 14 -17 4 -28 2 -28 -4z"/>
<path d="M2193 3513 c9 -2 25 -2 35 0 9 3 1 5 -18 5 -19 0 -27 -2 -17 -5z"/>
<path d="M4505 3473 c11 -3 26 -10 33 -15 9 -8 12 -6 12 6 0 12 -9 16 -32 15
-22 -1 -26 -3 -13 -6z"/>
<path d="M4356 3456 c3 -9 18 -16 33 -16 43 0 166 -29 169 -40 2 -6 8 -10 13
-10 4 0 6 6 3 14 -5 13 -38 24 -149 46 -22 5 -48 12 -58 15 -13 6 -16 3 -11
-9z"/>
<path d="M2950 3396 c0 -2 7 -7 16 -10 8 -3 12 -2 9 4 -6 10 -25 14 -25 6z"/>
<path d="M4383 3393 c14 -13 218 -60 214 -49 -4 11 -19 15 -112 34 -27 6 -63
14 -80 17 -16 4 -26 3 -22 -2z"/>
<path d="M4410 3322 c0 -4 33 -14 73 -21 39 -7 87 -19 105 -27 27 -11 32 -11
32 0 0 10 -30 19 -92 30 -51 9 -99 19 -105 21 -7 2 -13 1 -13 -3z"/>
<path d="M2420 3251 c-23 -6 -23 -8 -5 -12 24 -7 45 -1 45 12 0 10 -4 10 -40
0z"/>
<path d="M4430 3250 c0 -8 71 -20 79 -14 8 7 -3 11 -41 17 -21 3 -38 2 -38 -3z"/>
<path d="M4540 3231 c8 -6 22 -11 30 -11 8 0 27 -7 43 -14 25 -14 27 -13 27 5
0 11 -7 19 -17 19 -10 0 -36 3 -58 6 -30 4 -36 3 -25 -5z"/>
<path d="M1289 3215 c-1 -3 -2 -10 -3 -15 0 -6 -6 -14 -12 -18 -6 -4 -19 -36
-28 -72 -9 -36 -25 -96 -36 -135 -11 -38 -20 -83 -20 -98 0 -25 3 -28 28 -25
26 3 27 5 33 83 7 83 16 113 59 180 32 51 37 55 85 56 l40 0 -53 15 c-29 7
-62 19 -73 24 -10 6 -20 8 -20 5z"/>
<path d="M2318 3204 c-16 -8 -28 -19 -28 -25 0 -6 14 -1 30 11 17 12 30 23 30
26 0 6 -1 5 -32 -12z"/>
<path d="M2790 3181 c-7 -13 -7 -22 0 -26 11 -7 11 -8 14 23 3 27 0 28 -14 3z"/>
<path d="M4450 3190 c0 -10 66 -33 80 -28 6 2 -10 10 -35 19 -25 9 -45 13 -45
9z"/>
<path d="M1527 3174 c-29 -16 -48 -66 -67 -177 -6 -34 -16 -72 -22 -84 -13
-26 -3 -73 16 -73 30 0 39 29 32 101 -7 80 0 95 82 181 47 49 47 48 -1 62 -7
2 -25 -3 -40 -10z"/>
<path d="M2379 3188 c-6 -20 -6 -39 0 -42 4 -3 7 6 7 20 0 20 -4 32 -7 22z"/>
<path d="M2450 3176 c0 -8 4 -17 9 -20 5 -4 7 3 4 14 -6 23 -13 26 -13 6z"/>
<path d="M1810 3160 c20 -13 77 -13 85 0 4 6 -14 10 -47 10 -38 0 -49 -3 -38
-10z"/>
<path d="M2234 3133 c-41 -51 -47 -63 -35 -63 6 0 11 5 11 12 0 7 17 29 37 50
20 21 32 38 27 38 -6 0 -24 -17 -40 -37z"/>
<path d="M2636 3162 c-8 -14 9 -31 33 -34 14 -2 26 3 28 12 4 12 3 12 -5 1 -7
-10 -14 -11 -31 -2 -12 7 -19 16 -16 22 4 5 4 9 1 9 -3 0 -7 -4 -10 -8z"/>
<path d="M4565 3160 c-13 -5 -14 -9 -5 -9 8 0 24 4 35 9 13 5 14 9 5 9 -8 0
-24 -4 -35 -9z"/>
<path d="M2607 3147 c-3 -8 1 -14 8 -14 7 0 11 6 8 14 -3 7 -6 13 -8 13 -2 0
-5 -6 -8 -13z"/>
<path d="M3314 3148 c-4 -7 -4 -10 1 -6 4 4 15 2 24 -5 14 -11 14 -10 2 6 -16
20 -18 21 -27 5z"/>
<path d="M4606 3151 c-20 -8 -20 -8 0 -13 10 -3 27 -9 36 -13 13 -5 15 -2 11
14 -6 22 -15 25 -47 12z"/>
<path d="M2317 3143 c-2 -5 -2 -14 -1 -20 1 -7 2 -17 3 -23 0 -5 8 -10 16 -10
15 0 32 46 21 57 -3 4 -6 -3 -6 -15 0 -26 -20 -40 -21 -15 -1 10 -1 21 0 26 0
4 -1 7 -3 7 -3 0 -7 -3 -9 -7z"/>
<path d="M2414 3142 c4 -7 2 -13 -3 -13 -6 -1 -16 -2 -23 -3 -15 -1 -23 -26
-9 -26 6 0 13 0 16 0 3 0 5 3 4 6 -1 12 24 22 44 18 11 -2 16 0 13 4 -4 4 -11
7 -14 7 -4 0 -13 4 -21 9 -10 6 -12 5 -7 -2z"/>
<path d="M4466 3105 c4 -8 10 -15 16 -15 5 0 7 4 4 9 -4 5 0 12 6 14 7 3 3 6
-9 6 -16 1 -21 -3 -17 -14z"/>
<path d="M4510 3106 c0 -2 32 -12 71 -21 48 -12 66 -20 57 -26 -8 -6 -9 -9 -1
-9 6 0 18 -3 27 -6 10 -4 16 -1 16 9 0 18 -10 22 -96 42 -71 16 -74 17 -74 11z"/>
<path d="M2350 3082 c-20 -9 -22 -45 -4 -55 13 -8 13 -11 -3 -24 -10 -8 -13
-12 -7 -9 15 7 24 -27 13 -47 -7 -11 -5 -15 8 -12 10 1 16 9 14 16 -12 46 -8
48 11 9 l22 -45 14 49 c11 37 11 51 2 60 -9 8 -11 5 -6 -14 3 -14 3 -19 0 -12
-3 6 -11 9 -16 6 -7 -5 -8 -2 -4 5 5 7 9 27 11 44 2 18 1 24 -1 15 -3 -10 -10
-18 -15 -18 -6 0 -7 -5 -3 -12 4 -7 3 -8 -4 -4 -6 4 -8 14 -5 23 5 13 2 15
-13 10 -19 -7 -19 -7 0 8 20 15 13 19 -14 7z"/>
<path d="M2420 3058 c0 -9 5 -20 10 -23 13 -8 13 5 0 25 -8 13 -10 13 -10 -2z"/>
<path d="M2135 3005 c-26 -31 -45 -58 -42 -61 5 -5 72 70 88 99 17 30 3 19
-46 -38z"/>
<path d="M2586 3025 c-11 -30 -6 -40 11 -22 12 12 14 20 6 28 -7 7 -12 6 -17
-6z"/>
<path d="M4480 3032 c0 -14 58 -26 145 -30 26 -2 35 -5 27 -11 -10 -6 -8 -10
9 -14 27 -7 33 -3 26 16 -3 9 -35 19 -84 26 -43 7 -88 15 -100 18 -13 3 -23 0
-23 -5z"/>
<path d="M2274 3014 c-18 -14 -18 -15 4 -4 12 6 22 13 22 15 0 8 -5 6 -26 -11z"/>
<path d="M2145 2960 c-4 -11 -11 -18 -16 -14 -5 3 -8 0 -7 -8 2 -7 -3 -12 -9
-10 -7 1 -13 -2 -13 -8 0 -14 9 -12 33 8 12 9 23 25 25 35 4 23 -5 22 -13 -3z"/>
<path d="M2237 2962 c6 -15 5 -15 -10 -3 -9 7 -17 11 -17 8 0 -2 6 -10 14 -16
10 -8 16 -8 25 3 9 11 8 15 -3 19 -11 4 -13 1 -9 -11z"/>
<path d="M2183 2955 c0 -8 4 -12 9 -9 5 3 6 10 3 15 -9 13 -12 11 -12 -6z"/>
<path d="M2295 2951 c-3 -5 -2 -12 3 -15 5 -3 9 1 9 9 0 17 -3 19 -12 6z"/>
<path d="M4490 2952 c0 -13 15 -17 100 -32 36 -6 75 -14 88 -17 17 -4 21 -2
17 10 -4 9 -31 18 -73 25 -37 6 -82 14 -99 18 -21 4 -33 3 -33 -4z"/>
<path d="M3590 2940 c0 -5 5 -10 11 -10 5 0 7 5 4 10 -3 6 -8 10 -11 10 -2 0
-4 -4 -4 -10z"/>
<path d="M2222 2919 c2 -6 -5 -13 -15 -14 -11 -2 -22 -7 -25 -11 -4 -4 6 -4
23 -1 28 5 28 4 10 -9 -18 -13 -14 -14 38 -13 55 2 74 13 42 25 -8 4 -13 10
-10 14 3 5 -3 7 -12 5 -10 -1 -26 2 -36 7 -12 6 -16 5 -15 -3z m56 -30 c3 -11
1 -11 -7 1 -7 10 -11 11 -11 3 0 -18 -17 -16 -24 2 -4 11 1 14 16 11 12 -1 24
-9 26 -17z"/>
<path d="M2323 2904 c13 -16 15 -23 6 -26 -10 -3 -10 -6 -1 -12 7 -4 12 -2 12
5 0 8 4 8 13 1 10 -8 13 -6 13 8 0 10 -4 16 -9 13 -4 -3 -18 3 -30 14 -22 18
-22 18 -4 -3z"/>
<path d="M2063 2878 c-6 -7 -13 -29 -17 -48 -4 -25 -3 -31 4 -20 5 8 10 24 10
36 0 11 5 25 12 32 7 7 9 12 6 12 -3 0 -10 -6 -15 -12z"/>
<path d="M4500 2879 c0 -9 13 -13 104 -29 75 -13 96 -13 96 0 0 6 -12 10 -27
10 -16 0 -61 6 -100 14 -40 7 -73 10 -73 5z"/>
<path d="M872 2858 c-13 -17 -42 -87 -42 -103 0 -6 11 -18 25 -25 19 -10 22
-17 14 -32 -5 -10 -12 -47 -16 -83 -5 -56 -4 -65 11 -65 9 0 16 -4 16 -10 0
-14 38 -12 42 2 3 7 21 11 49 10 l45 -3 13 73 c16 86 32 122 66 144 33 22 31
39 -5 54 -26 11 -33 10 -50 -5 -14 -13 -29 -16 -55 -12 l-35 6 0 -47 c0 -31
-3 -42 -9 -33 -5 8 -7 35 -4 61 4 41 2 50 -18 64 -28 19 -34 20 -47 4z"/>
<path d="M1731 2854 c0 -11 3 -14 6 -6 3 7 2 16 -1 19 -3 4 -6 -2 -5 -13z"/>
<path d="M3416 2827 c3 -10 9 -15 12 -12 3 3 0 11 -7 18 -10 9 -11 8 -5 -6z"/>
<path d="M1159 2812 c-24 -19 -27 -30 -39 -152 -12 -121 -11 -132 5 -150 9
-10 14 -24 10 -30 -4 -6 13 -28 37 -50 30 -28 38 -40 25 -40 -11 0 -17 -8 -17
-23 0 -19 8 -26 40 -36 47 -14 55 -25 51 -69 -3 -41 13 -62 50 -62 15 0 31 -4
34 -10 3 -5 14 -10 23 -10 9 0 43 -16 75 -35 45 -27 69 -35 107 -35 39 0 48 3
44 14 -4 11 0 13 15 9 20 -5 21 -2 21 116 0 66 -3 121 -6 121 -12 0 -51 -24
-92 -57 -24 -20 -46 -33 -49 -29 -7 7 85 116 98 116 5 0 9 6 9 14 0 18 -26 24
-127 32 -81 7 -82 7 -107 -22 -18 -20 -26 -41 -26 -69 l-1 -40 -14 32 c-7 17
-23 36 -34 43 -11 6 -23 21 -27 34 -5 20 -14 24 -56 29 -64 8 -88 27 -34 27
37 0 38 1 30 28 -5 15 -9 54 -9 87 1 52 6 69 44 133 43 71 54 79 101 72 10 -1
12 2 5 8 -5 6 -44 13 -85 17 -66 6 -78 5 -101 -13z"/>
<path d="M1407 2792 c-25 -26 -29 -40 -39 -144 -15 -151 -6 -178 57 -178 l43
0 1 128 c2 160 7 193 35 200 20 6 20 6 -4 13 -47 13 -66 9 -93 -19z"/>
<path d="M2070 2816 c0 -2 8 -10 18 -17 15 -13 16 -12 3 4 -13 16 -21 21 -21
13z"/>
<path d="M4505 2808 c7 -17 85 -24 85 -8 0 6 -6 10 -14 10 -7 0 -28 3 -45 6
-25 5 -30 4 -26 -8z"/>
<path d="M1715 2790 c-10 -11 -21 -17 -25 -15 -9 6 -17 -45 -26 -165 -6 -79
-5 -88 17 -120 19 -28 30 -34 52 -32 15 2 25 8 21 13 -3 5 -10 6 -16 3 -7 -5
-9 -1 -5 9 4 10 2 14 -6 11 -13 -5 -16 27 -19 173 -1 46 2 86 5 89 4 4 17 7
29 8 16 1 23 7 24 24 2 28 -26 30 -51 2z"/>
<path d="M2060 2791 c0 -6 4 -13 10 -16 6 -3 7 1 4 9 -7 18 -14 21 -14 7z"/>
<path d="M4643 2784 c0 -20 61 -36 65 -16 5 17 4 18 -34 25 -23 4 -31 2 -31
-9z"/>
<path d="M2039 2777 c6 -8 7 -18 3 -22 -4 -5 -1 -5 6 -1 10 6 10 11 1 22 -6 8
-14 14 -16 14 -3 0 0 -6 6 -13z"/>
<path d="M2004 2769 c-3 -6 -2 -15 4 -21 6 -6 12 -6 17 3 6 8 4 10 -5 4 -10
-6 -12 -4 -7 8 7 19 2 23 -9 6z"/>
<path d="M4512 2728 c2 -6 42 -19 89 -29 103 -22 119 -23 119 -6 0 9 -32 19
-97 30 -115 20 -116 20 -111 5z"/>
<path d="M1995 2703 c-7 -26 -8 -26 -15 -8 -7 15 -9 16 -9 4 -1 -9 6 -22 15
-29 8 -8 14 -9 13 -4 -4 23 2 36 16 31 19 -8 26 5 14 23 -7 13 -9 13 -9 0 0
-12 -2 -12 -9 -2 -6 10 -10 6 -16 -15z"/>
<path d="M2050 2701 c0 -6 4 -13 10 -16 6 -3 7 1 4 9 -7 18 -14 21 -14 7z"/>
<path d="M4519 2646 c7 -8 44 -19 84 -26 40 -6 82 -13 95 -16 14 -3 22 0 22 9
0 9 -31 19 -92 30 -115 21 -124 22 -109 3z"/>
<path d="M1968 2637 c5 -7 8 -20 7 -29 -2 -10 2 -21 8 -25 7 -3 9 -2 4 2 -4 5
0 16 9 26 12 14 13 19 2 25 -21 14 -40 14 -30 1z m27 -6 c3 -5 2 -12 -3 -15
-5 -3 -9 1 -9 9 0 17 3 19 12 6z"/>
<path d="M2020 2630 c6 -11 13 -20 16 -20 2 0 0 9 -6 20 -6 11 -13 20 -16 20
-2 0 0 -9 6 -20z"/>
<path d="M807 2634 c-4 -4 -7 -29 -7 -56 0 -59 23 -63 28 -5 3 38 -9 73 -21
61z"/>
<path d="M3255 2619 c-11 -16 -1 -19 13 -3 7 8 8 14 3 14 -5 0 -13 -5 -16 -11z"/>
<path d="M1945 2579 c-4 -6 -5 -12 -2 -15 2 -3 7 2 10 11 7 17 1 20 -8 4z"/>
<path d="M3294 2570 c0 -13 4 -16 10 -10 7 7 7 13 0 20 -6 6 -10 3 -10 -10z"/>
<path d="M4520 2565 c0 -11 11 -15 38 -15 20 0 65 -6 100 -14 56 -11 63 -11
60 3 -2 11 -24 19 -73 28 -97 16 -125 16 -125 -2z"/>
<path d="M3377 2559 c7 -7 15 -10 18 -7 3 3 -2 9 -12 12 -14 6 -15 5 -6 -5z"/>
<path d="M3356 2533 c2 -7 -3 -13 -11 -13 -19 0 -18 -10 0 -34 14 -19 21 -11
16 18 -1 4 4 15 11 24 8 10 9 13 1 9 -6 -4 -13 -4 -16 0 -2 5 -2 2 -1 -4z"/>
<path d="M1916 2519 c3 -5 10 -6 16 -3 8 5 9 1 5 -10 -4 -10 -3 -15 3 -11 9 6
14 -8 11 -27 0 -5 6 -8 14 -8 9 0 12 -6 9 -15 -4 -8 -1 -15 4 -15 6 0 10 13
10 29 -1 20 -5 28 -14 24 -17 -6 -18 9 -1 27 10 12 9 12 -5 2 -12 -10 -17 -10
-20 -1 -2 7 -12 13 -21 15 -9 1 -15 -2 -11 -7z"/>
<path d="M3261 2514 c0 -11 3 -14 6 -6 3 7 2 16 -1 19 -3 4 -6 -2 -5 -13z"/>
<path d="M3380 2500 c0 -5 5 -10 11 -10 5 0 7 5 4 10 -3 6 -8 10 -11 10 -2 0
-4 -4 -4 -10z"/>
<path d="M4522 2492 c3 -14 18 -18 86 -20 45 -2 82 -7 82 -11 0 -5 7 -11 15
-15 10 -3 15 1 15 13 0 16 -13 20 -82 30 -46 7 -91 14 -101 16 -13 2 -17 -2
-15 -13z"/>
<path d="M3400 2470 c-8 -5 -11 -13 -6 -17 5 -4 11 -2 13 5 3 6 9 10 14 6 5
-3 9 0 9 5 0 13 -10 14 -30 1z"/>
<path d="M1335 2457 c-14 -11 -15 -16 -5 -22 11 -7 29 9 30 28 0 10 -3 9 -25
-6z"/>
<path d="M4510 2417 c0 -17 20 -22 120 -33 36 -3 68 -11 71 -16 3 -5 9 -1 11
10 5 18 -3 21 -86 32 -50 7 -96 15 -103 17 -7 3 -13 -2 -13 -10z"/>
<path d="M3187 2379 c7 -7 15 -10 18 -7 3 3 -2 9 -12 12 -14 6 -15 5 -6 -5z"/>
<path d="M3176 2351 c-3 -5 1 -11 9 -14 9 -4 12 -1 8 9 -6 16 -10 17 -17 5z"/>
<path d="M4500 2343 c0 -6 33 -14 74 -18 40 -3 86 -13 101 -21 34 -17 35 -17
35 0 0 9 -19 19 -52 26 -83 18 -158 24 -158 13z"/>
<path d="M980 2321 c0 -6 4 -13 10 -16 6 -3 7 1 4 9 -7 18 -14 21 -14 7z"/>
<path d="M1017 2313 c-8 -8 12 -33 26 -33 6 0 7 3 4 7 -4 3 -1 13 5 22 10 13
10 14 -2 4 -17 -15 -34 -17 -25 -3 7 11 2 13 -8 3z"/>
<path d="M990 2274 c0 -9 5 -12 10 -9 14 9 12 -18 -2 -35 -10 -11 -9 -11 6 0
18 14 19 13 13 -5 -7 -20 -7 -20 8 -1 11 14 12 22 4 27 -8 5 -6 8 6 10 12 3 8
7 -14 16 -26 9 -31 9 -31 -3z"/>
<path d="M3329 2263 c-13 -16 -12 -17 4 -4 16 13 21 21 13 21 -2 0 -10 -8 -17
-17z"/>
<path d="M4490 2255 c0 -8 13 -16 33 -19 17 -3 62 -10 98 -16 83 -13 79 -13
79 8 0 16 -14 20 -94 30 -118 15 -116 15 -116 -3z"/>
<path d="M4480 2172 c0 -16 10 -23 50 -31 28 -6 66 -11 83 -11 18 0 38 -5 45
-12 14 -14 18 -11 28 26 4 16 3 27 -2 24 -9 -5 -124 6 -176 18 -23 5 -28 2
-28 -14z"/>
<path d="M1206 2153 c-6 -14 -5 -15 5 -6 7 7 10 15 7 18 -3 3 -9 -2 -12 -12z"/>
<path d="M1160 2130 c0 -5 5 -10 11 -10 5 0 7 5 4 10 -3 6 -8 10 -11 10 -2 0
-4 -4 -4 -10z"/>
<path d="M1198 2118 c15 -19 54 -18 59 2 3 11 2 11 -4 3 -9 -13 -30 -12 -53 2
-13 7 -13 6 -2 -7z"/>
<path d="M1267 2106 c-10 -24 -10 -24 21 -23 15 0 21 2 14 4 -6 3 -9 10 -6 15
4 6 2 8 -4 4 -5 -3 -12 -1 -14 6 -3 7 -7 5 -11 -6z"/>
<path d="M3903 2113 c-8 -3 -13 -24 -13 -54 0 -47 -8 -67 -67 -173 -7 -12 -13
-42 -15 -66 -2 -35 0 -45 14 -48 20 -4 24 5 61 123 14 44 23 94 21 110 -4 25
-3 26 5 10 8 -16 10 -17 10 -4 1 9 8 30 16 45 27 53 14 76 -32 57z"/>
<path d="M1165 2102 c15 -10 16 -53 2 -72 -10 -13 -10 -13 4 -2 13 10 20 9 40
-6 32 -24 66 -38 51 -20 -15 19 -15 30 0 40 10 7 9 8 -5 4 -14 -5 -16 -1 -12
22 5 26 5 26 -5 3 -7 -16 -7 -27 0 -36 8 -10 8 -15 -1 -21 -8 -4 -9 -3 -5 5 4
6 0 14 -8 17 -12 5 -13 11 -6 24 14 27 12 33 -9 27 -12 -3 -22 1 -25 9 -3 8
-11 14 -18 14 -8 0 -9 -3 -3 -8z m47 -29 c-6 -3 -10 -9 -7 -13 3 -5 1 -11 -4
-14 -5 -3 -11 2 -13 12 -4 13 1 18 16 19 12 1 15 -1 8 -4z"/>
<path d="M4470 2091 c0 -21 4 -22 115 -37 28 -3 58 -10 68 -15 10 -6 17 -6 17
0 0 5 3 16 6 25 5 12 -1 16 -24 16 -27 0 -72 7 -159 26 -18 3 -23 0 -23 -15z"/>
<path d="M3667 2063 c8 -49 9 -50 37 -24 32 30 24 61 -15 61 -26 0 -27 -2 -22
-37z"/>
<path d="M3749 2098 c0 -2 -2 -17 -3 -34 -2 -18 -22 -72 -44 -120 -22 -49 -44
-102 -48 -119 -4 -16 -13 -42 -21 -57 -15 -31 -14 -32 52 -29 68 3 92 18 104
64 15 60 36 265 27 274 -4 4 -12 1 -17 -7 -8 -12 -9 -11 -7 5 2 14 -3 21 -19
23 -13 2 -23 2 -24 0z"/>
<path d="M3437 2083 c-4 -3 2 -12 12 -20 11 -7 23 -28 26 -46 4 -17 12 -37 17
-44 18 -23 11 -131 -12 -176 -42 -80 -43 -87 -11 -87 57 0 93 87 109 266 9 99
-2 114 -81 114 -30 0 -57 -3 -60 -7z"/>
<path d="M3323 2073 c15 -2 37 -2 50 0 12 2 0 4 -28 4 -27 0 -38 -2 -22 -4z"/>
<path d="M1490 2059 c0 -5 5 -7 10 -4 6 3 10 8 10 11 0 2 -4 4 -10 4 -5 0 -10
-5 -10 -11z"/>
<path d="M1287 2040 c-9 -11 -12 -20 -6 -20 6 0 8 -7 5 -16 -3 -8 -2 -12 4 -9
16 10 11 -21 -5 -35 -8 -7 -12 -17 -9 -22 3 -5 8 -7 11 -4 3 2 21 -4 40 -15
20 -11 38 -18 41 -15 3 3 -11 13 -31 21 -36 15 -54 34 -20 21 10 -4 14 -4 10
0 -4 4 -1 14 5 23 10 13 10 14 -2 4 -22 -20 -30 -15 -20 13 6 14 6 23 1 20
-14 -9 -20 16 -9 37 12 23 6 22 -15 -3z"/>
<path d="M1126 2028 c3 -5 10 -6 15 -3 13 9 11 12 -6 12 -8 0 -12 -4 -9 -9z"/>
<path d="M1435 2029 c-4 -6 -5 -12 -2 -15 2 -3 7 2 10 11 7 17 1 20 -8 4z"/>
<path d="M1395 2019 c-4 -6 -5 -12 -2 -15 2 -3 7 2 10 11 7 17 1 20 -8 4z"/>
<path d="M4450 2007 c0 -23 3 -25 82 -32 46 -4 90 -11 99 -16 12 -6 19 -4 23
7 11 29 6 31 -86 44 -51 7 -98 15 -105 17 -8 3 -13 -4 -13 -20z"/>
<path d="M1196 2002 c-3 -5 1 -9 9 -9 8 0 12 4 9 9 -3 4 -7 8 -9 8 -2 0 -6 -4
-9 -8z"/>
<path d="M3210 1991 c0 -5 5 -13 10 -16 6 -3 10 -2 10 4 0 5 -4 13 -10 16 -5
3 -10 2 -10 -4z"/>
<path d="M4434 1948 c-10 -15 13 -25 85 -38 37 -6 78 -13 94 -16 22 -5 27 -2
27 14 0 17 -10 21 -77 27 -43 4 -87 11 -100 16 -14 5 -25 4 -29 -3z"/>
<path d="M1283 1906 c18 -14 18 -14 0 -19 -14 -4 -15 -5 -2 -6 9 0 23 7 30 17
7 9 10 14 5 10 -5 -4 -18 -3 -30 3 -20 9 -20 9 -3 -5z"/>
<path d="M1006 1860 c8 -31 19 -43 33 -39 6 2 0 17 -15 34 -24 29 -25 29 -18
5z"/>
<path d="M2576 1831 c-4 -6 -2 -11 4 -11 6 0 8 -6 4 -12 -6 -10 -4 -10 7 0 9
9 10 15 2 23 -8 8 -13 8 -17 0z"/>
<path d="M2965 1820 c-3 -6 1 -7 9 -4 18 7 21 14 7 14 -6 0 -13 -4 -16 -10z"/>
<path d="M1320 1817 c0 -2 6 -10 14 -16 11 -9 16 -9 22 1 4 7 4 10 -1 6 -4 -4
-14 -3 -22 3 -7 6 -13 9 -13 6z"/>
<path d="M3513 1717 c-10 -13 -25 -26 -33 -29 -9 -3 -28 -37 -43 -75 -31 -80
-56 -113 -146 -199 -57 -54 -63 -63 -52 -82 10 -19 8 -22 -21 -31 -18 -5 -25
-10 -15 -10 12 -1 15 -5 10 -13 -4 -7 -15 -33 -23 -58 -12 -37 -28 -54 -89
-100 l-74 -55 42 -3 c37 -3 48 2 82 32 21 20 47 36 57 36 23 0 48 27 98 105
22 33 42 63 47 66 4 3 5 13 2 21 -4 10 5 24 25 40 21 16 40 48 59 98 16 41 42
108 59 148 17 40 26 70 20 66 -12 -8 -1 34 14 54 6 6 8 12 5 12 -3 0 -14 -10
-24 -23z m-28 -86 c-18 -51 -35 -84 -41 -78 -9 9 39 117 52 117 2 0 -3 -18
-11 -39z"/>
<path d="M2945 1720 c-4 -6 -2 -17 4 -24 13 -16 54 -29 45 -15 -3 5 -12 9 -19
9 -8 0 -12 6 -9 14 7 17 -12 31 -21 16z"/>
<path d="M3654 1714 c-16 -4 -23 -15 -27 -45 -7 -54 -75 -199 -106 -227 -14
-13 -37 -31 -51 -40 -14 -10 -26 -25 -26 -34 -2 -15 7 -18 52 -18 52 0 71 -11
38 -24 -9 -3 -34 -6 -56 -6 -30 0 -46 -7 -69 -29 -16 -16 -29 -35 -29 -43 0
-19 -49 -68 -95 -94 -12 -7 -19 -22 -19 -44 -1 -29 2 -34 27 -37 22 -3 36 4
63 31 22 22 41 33 52 30 11 -4 13 -3 5 3 -9 6 -2 20 24 48 20 22 36 42 36 45
-1 3 12 21 29 40 16 19 25 26 19 14 -5 -11 -17 -26 -25 -34 -9 -7 -16 -16 -16
-21 0 -5 13 3 29 17 18 15 28 33 26 44 -2 12 12 35 36 59 36 37 79 105 79 123
0 4 27 58 60 120 33 61 59 113 57 115 -7 6 -92 11 -113 7z"/>
<path d="M3785 1694 c-9 -9 -34 -52 -55 -95 -29 -57 -36 -80 -27 -85 6 -4 9
-4 5 1 -5 5 1 14 11 22 17 12 101 150 101 167 0 11 -18 6 -35 -10z"/>
<path d="M2417 1693 c-4 -3 -7 -11 -7 -17 0 -6 5 -5 12 2 6 6 9 14 7 17 -3 3
-9 2 -12 -2z"/>
<path d="M2080 1680 c0 -6 48 -9 128 -9 100 1 116 3 77 9 -74 12 -205 12 -205
0z"/>
<path d="M1246 1658 c3 -5 10 -6 15 -3 13 9 11 12 -6 12 -8 0 -12 -4 -9 -9z"/>
<path d="M2066 1652 c-2 -4 4 -9 15 -9 10 -1 19 2 19 8 0 11 -27 12 -34 1z"/>
<path d="M2032 1630 c0 -14 4 -38 8 -55 l8 -30 0 30 c0 17 -4 41 -8 55 l-8 25
0 -25z"/>
<path d="M3116 1635 c-3 -9 -6 -22 -5 -28 0 -7 5 -1 10 12 5 13 8 26 5 28 -2
2 -6 -3 -10 -12z"/>
<path d="M2391 1513 c0 -73 3 -133 7 -133 8 0 5 214 -2 250 -2 8 -4 -45 -5
-117z"/>
<path d="M2052 1510 c0 -19 2 -27 5 -17 2 9 2 25 0 35 -3 9 -5 1 -5 -18z"/>
<path d="M2062 1450 c0 -14 2 -19 5 -12 2 6 2 18 0 25 -3 6 -5 1 -5 -13z"/>
<path d="M2071 1394 c0 -11 3 -14 6 -6 3 7 2 16 -1 19 -3 4 -6 -2 -5 -13z"/>
<path d="M2118 1373 c-25 -6 -10 -33 18 -33 13 0 24 5 24 10 0 6 -7 10 -16 10
-8 0 -12 5 -9 10 3 6 5 9 3 9 -2 -1 -11 -3 -20 -6z"/>
<path d="M1903 1333 c9 -2 25 -2 35 0 9 3 1 5 -18 5 -19 0 -27 -2 -17 -5z"/>
<path d="M3065 1290 c-3 -5 -1 -10 4 -10 6 0 11 5 11 10 0 6 -2 10 -4 10 -3 0
-8 -4 -11 -10z"/>
<path d="M710 1260 c0 -5 5 -10 10 -10 6 0 10 5 10 10 0 6 -4 10 -10 10 -5 0
-10 -4 -10 -10z"/>
<path d="M3300 1061 c-39 -12 -90 -41 -90 -51 0 -5 -29 -23 -65 -41 -59 -29
-81 -49 -54 -49 5 0 7 5 3 11 -4 7 0 9 14 5 12 -4 26 -1 36 9 18 18 84 49 106
50 9 0 36 17 60 38 43 36 40 43 -10 28z"/>
<path d="M1975 920 c-9 -15 -3 -20 31 -25 26 -5 27 -4 9 7 -11 6 -23 16 -26
21 -4 5 -9 4 -14 -3z"/>
<path d="M2157 862 c17 -9 45 -25 62 -35 17 -10 31 -16 31 -13 0 11 -86 66
-104 66 -17 0 -15 -3 11 -18z"/>
<path d="M1450 856 c0 -3 9 -10 20 -16 11 -6 20 -8 20 -6 0 3 -9 10 -20 16
-11 6 -20 8 -20 6z"/>
<path d="M1923 827 c4 -12 76 -39 94 -35 6 2 -13 13 -43 24 -30 12 -53 17 -51
11z"/>
<path d="M2324 802 c30 -32 43 -39 53 -31 7 7 13 20 13 30 0 16 -3 17 -19 7
-15 -9 -25 -7 -52 12 l-34 23 39 -41z"/>
<path d="M2013 773 c9 -2 23 -2 30 0 6 3 -1 5 -18 5 -16 0 -22 -2 -12 -5z"/>
<path d="M1880 260 c34 -11 60 -11 35 0 -11 5 -29 8 -40 8 -16 0 -15 -2 5 -8z"/>
<path d="M2078 213 c6 -2 18 -2 25 0 6 3 1 5 -13 5 -14 0 -19 -2 -12 -5z"/>
</g>
</svg>
